{
  "header": {
    "formatType": 1,
    "trackCount": 2,
    "ticksPerBeat": 480
  },
  "tracks": [
    [
      {
        "deltaTime": 0,
        "type": "meta",
        "subtype": "trackName",
        "text": "Piano\u0000"
      },
      {
        "deltaTime": 0,
        "type": "meta",
        "subtype": "timeSignature",
        "numerator": 2,
        "denominator": 4,
        "metronome": 24,
        "thirtyseconds": 8
      },
      {
        "deltaTime": 0,
        "type": "meta",
        "subtype": "keySignature",
        "key": 0,
        "scale": 0
      },
      {
        "deltaTime": 0,
        "type": "meta",
        "subtype": "setTempo",
        "microsecondsPerBeat": 500000
      },
      {
        "deltaTime": 0,
        "channel": 0,
        "type": "channel",
        "subtype": "controller",
        "controllerType": 121,
        "value": 0
      },
      {
        "deltaTime": 0,
        "channel": 0,
        "type": "channel",
        "subtype": "programChange",
        "programNumber": 0
      },
      {
        "deltaTime": 0,
        "channel": 0,
        "type": "channel",
        "subtype": "controller",
        "controllerType": 7,
        "value": 100
      },
      {
        "deltaTime": 0,
        "channel": 0,
        "type": "channel",
        "subtype": "controller",
        "controllerType": 10,
        "value": 63
      },
      {
        "deltaTime": 0,
        "channel": 0,
        "type": "channel",
        "subtype": "controller",
        "controllerType": 91,
        "value": 0
      },
      {
        "deltaTime": 0,
        "channel": 0,
        "type": "channel",
        "subtype": "controller",
        "controllerType": 93,
        "value": 0
      },
      {
        "deltaTime": 0,
        "type": "meta",
        "subtype": "unknown",
        "data": "\u0000"
      },
      {
        "deltaTime": 0,
        "channel": 0,
        "type": "channel",
        "noteNumber": 48,
        "velocity": 80,
        "subtype": "noteOn"
      },
      {
        "deltaTime": 113,
        "channel": 0,
        "type": "channel",
        "noteNumber": 48,
        "velocity": 0,
        "subtype": "noteOff"
      },
      {
        "deltaTime": 7,
        "channel": 0,
        "type": "channel",
        "noteNumber": 52,
        "velocity": 80,
        "subtype": "noteOn"
      },
      {
        "deltaTime": 113,
        "channel": 0,
        "type": "channel",
        "noteNumber": 52,
        "velocity": 0,
        "subtype": "noteOff"
      },
      {
        "deltaTime": 7,
        "channel": 0,
        "type": "channel",
        "noteNumber": 57,
        "velocity": 80,
        "subtype": "noteOn"
      },
      {
        "deltaTime": 113,
        "channel": 0,
        "type": "channel",
        "noteNumber": 57,
        "velocity": 0,
        "subtype": "noteOff"
      },
      {
        "deltaTime": 7,
        "channel": 0,
        "type": "channel",
        "noteNumber": 55,
        "velocity": 80,
        "subtype": "noteOn"
      },
      {
        "deltaTime": 113,
        "channel": 0,
        "type": "channel",
        "noteNumber": 55,
        "velocity": 0,
        "subtype": "noteOff"
      },
      {
        "deltaTime": 7,
        "channel": 0,
        "type": "channel",
        "noteNumber": 53,
        "velocity": 80,
        "subtype": "noteOn"
      },
      {
        "deltaTime": 113,
        "channel": 0,
        "type": "channel",
        "noteNumber": 53,
        "velocity": 0,
        "subtype": "noteOff"
      },
      {
        "deltaTime": 7,
        "channel": 0,
        "type": "channel",
        "noteNumber": 52,
        "velocity": 80,
        "subtype": "noteOn"
      },
      {
        "deltaTime": 113,
        "channel": 0,
        "type": "channel",
        "noteNumber": 52,
        "velocity": 0,
        "subtype": "noteOff"
      },
      {
        "deltaTime": 7,
        "channel": 0,
        "type": "channel",
        "noteNumber": 53,
        "velocity": 80,
        "subtype": "noteOn"
      },
      {
        "deltaTime": 113,
        "channel": 0,
        "type": "channel",
        "noteNumber": 53,
        "velocity": 0,
        "subtype": "noteOff"
      },
      {
        "deltaTime": 7,
        "channel": 0,
        "type": "channel",
        "noteNumber": 55,
        "velocity": 80,
        "subtype": "noteOn"
      },
      {
        "deltaTime": 113,
        "channel": 0,
        "type": "channel",
        "noteNumber": 55,
        "velocity": 0,
        "subtype": "noteOff"
      },
      {
        "deltaTime": 7,
        "channel": 0,
        "type": "channel",
        "noteNumber": 50,
        "velocity": 80,
        "subtype": "noteOn"
      },
      {
        "deltaTime": 113,
        "channel": 0,
        "type": "channel",
        "noteNumber": 50,
        "velocity": 0,
        "subtype": "noteOff"
      },
      {
        "deltaTime": 7,
        "channel": 0,
        "type": "channel",
        "noteNumber": 53,
        "velocity": 80,
        "subtype": "noteOn"
      },
      {
        "deltaTime": 113,
        "channel": 0,
        "type": "channel",
        "noteNumber": 53,
        "velocity": 0,
        "subtype": "noteOff"
      },
      {
        "deltaTime": 7,
        "channel": 0,
        "type": "channel",
        "noteNumber": 59,
        "velocity": 80,
        "subtype": "noteOn"
      },
      {
        "deltaTime": 113,
        "channel": 0,
        "type": "channel",
        "noteNumber": 59,
        "velocity": 0,
        "subtype": "noteOff"
      },
      {
        "deltaTime": 7,
        "channel": 0,
        "type": "channel",
        "noteNumber": 57,
        "velocity": 80,
        "subtype": "noteOn"
      },
      {
        "deltaTime": 113,
        "channel": 0,
        "type": "channel",
        "noteNumber": 57,
        "velocity": 0,
        "subtype": "noteOff"
      },
      {
        "deltaTime": 7,
        "channel": 0,
        "type": "channel",
        "noteNumber": 55,
        "velocity": 80,
        "subtype": "noteOn"
      },
      {
        "deltaTime": 113,
        "channel": 0,
        "type": "channel",
        "noteNumber": 55,
        "velocity": 0,
        "subtype": "noteOff"
      },
      {
        "deltaTime": 7,
        "channel": 0,
        "type": "channel",
        "noteNumber": 53,
        "velocity": 80,
        "subtype": "noteOn"
      },
      {
        "deltaTime": 113,
        "channel": 0,
        "type": "channel",
        "noteNumber": 53,
        "velocity": 0,
        "subtype": "noteOff"
      },
      {
        "deltaTime": 7,
        "channel": 0,
        "type": "channel",
        "noteNumber": 55,
        "velocity": 80,
        "subtype": "noteOn"
      },
      {
        "deltaTime": 113,
        "channel": 0,
        "type": "channel",
        "noteNumber": 55,
        "velocity": 0,
        "subtype": "noteOff"
      },
      {
        "deltaTime": 7,
        "channel": 0,
        "type": "channel",
        "noteNumber": 57,
        "velocity": 80,
        "subtype": "noteOn"
      },
      {
        "deltaTime": 113,
        "channel": 0,
        "type": "channel",
        "noteNumber": 57,
        "velocity": 0,
        "subtype": "noteOff"
      },
      {
        "deltaTime": 7,
        "channel": 0,
        "type": "channel",
        "noteNumber": 52,
        "velocity": 80,
        "subtype": "noteOn"
      },
      {
        "deltaTime": 113,
        "channel": 0,
        "type": "channel",
        "noteNumber": 52,
        "velocity": 0,
        "subtype": "noteOff"
      },
      {
        "deltaTime": 7,
        "channel": 0,
        "type": "channel",
        "noteNumber": 55,
        "velocity": 80,
        "subtype": "noteOn"
      },
      {
        "deltaTime": 113,
        "channel": 0,
        "type": "channel",
        "noteNumber": 55,
        "velocity": 0,
        "subtype": "noteOff"
      },
      {
        "deltaTime": 7,
        "channel": 0,
        "type": "channel",
        "noteNumber": 60,
        "velocity": 80,
        "subtype": "noteOn"
      },
      {
        "deltaTime": 113,
        "channel": 0,
        "type": "channel",
        "noteNumber": 60,
        "velocity": 0,
        "subtype": "noteOff"
      },
      {
        "deltaTime": 7,
        "channel": 0,
        "type": "channel",
        "noteNumber": 59,
        "velocity": 80,
        "subtype": "noteOn"
      },
      {
        "deltaTime": 113,
        "channel": 0,
        "type": "channel",
        "noteNumber": 59,
        "velocity": 0,
        "subtype": "noteOff"
      },
      {
        "deltaTime": 7,
        "channel": 0,
        "type": "channel",
        "noteNumber": 57,
        "velocity": 80,
        "subtype": "noteOn"
      },
      {
        "deltaTime": 113,
        "channel": 0,
        "type": "channel",
        "noteNumber": 57,
        "velocity": 0,
        "subtype": "noteOff"
      },
      {
        "deltaTime": 7,
        "channel": 0,
        "type": "channel",
        "noteNumber": 55,
        "velocity": 80,
        "subtype": "noteOn"
      },
      {
        "deltaTime": 113,
        "channel": 0,
        "type": "channel",
        "noteNumber": 55,
        "velocity": 0,
        "subtype": "noteOff"
      },
      {
        "deltaTime": 7,
        "channel": 0,
        "type": "channel",
        "noteNumber": 57,
        "velocity": 80,
        "subtype": "noteOn"
      },
      {
        "deltaTime": 113,
        "channel": 0,
        "type": "channel",
        "noteNumber": 57,
        "velocity": 0,
        "subtype": "noteOff"
      },
      {
        "deltaTime": 7,
        "channel": 0,
        "type": "channel",
        "noteNumber": 59,
        "velocity": 80,
        "subtype": "noteOn"
      },
      {
        "deltaTime": 113,
        "channel": 0,
        "type": "channel",
        "noteNumber": 59,
        "velocity": 0,
        "subtype": "noteOff"
      },
      {
        "deltaTime": 7,
        "channel": 0,
        "type": "channel",
        "noteNumber": 53,
        "velocity": 80,
        "subtype": "noteOn"
      },
      {
        "deltaTime": 113,
        "channel": 0,
        "type": "channel",
        "noteNumber": 53,
        "velocity": 0,
        "subtype": "noteOff"
      },
      {
        "deltaTime": 7,
        "channel": 0,
        "type": "channel",
        "noteNumber": 57,
        "velocity": 80,
        "subtype": "noteOn"
      },
      {
        "deltaTime": 113,
        "channel": 0,
        "type": "channel",
        "noteNumber": 57,
        "velocity": 0,
        "subtype": "noteOff"
      },
      {
        "deltaTime": 7,
        "channel": 0,
        "type": "channel",
        "noteNumber": 62,
        "velocity": 80,
        "subtype": "noteOn"
      },
      {
        "deltaTime": 113,
        "channel": 0,
        "type": "channel",
        "noteNumber": 62,
        "velocity": 0,
        "subtype": "noteOff"
      },
      {
        "deltaTime": 7,
        "channel": 0,
        "type": "channel",
        "noteNumber": 60,
        "velocity": 80,
        "subtype": "noteOn"
      },
      {
        "deltaTime": 113,
        "channel": 0,
        "type": "channel",
        "noteNumber": 60,
        "velocity": 0,
        "subtype": "noteOff"
      },
      {
        "deltaTime": 7,
        "channel": 0,
        "type": "channel",
        "noteNumber": 59,
        "velocity": 80,
        "subtype": "noteOn"
      },
      {
        "deltaTime": 113,
        "channel": 0,
        "type": "channel",
        "noteNumber": 59,
        "velocity": 0,
        "subtype": "noteOff"
      },
      {
        "deltaTime": 7,
        "channel": 0,
        "type": "channel",
        "noteNumber": 57,
        "velocity": 80,
        "subtype": "noteOn"
      },
      {
        "deltaTime": 113,
        "channel": 0,
        "type": "channel",
        "noteNumber": 57,
        "velocity": 0,
        "subtype": "noteOff"
      },
      {
        "deltaTime": 7,
        "channel": 0,
        "type": "channel",
        "noteNumber": 59,
        "velocity": 80,
        "subtype": "noteOn"
      },
      {
        "deltaTime": 113,
        "channel": 0,
        "type": "channel",
        "noteNumber": 59,
        "velocity": 0,
        "subtype": "noteOff"
      },
      {
        "deltaTime": 7,
        "channel": 0,
        "type": "channel",
        "noteNumber": 60,
        "velocity": 80,
        "subtype": "noteOn"
      },
      {
        "deltaTime": 113,
        "channel": 0,
        "type": "channel",
        "noteNumber": 60,
        "velocity": 0,
        "subtype": "noteOff"
      },
      {
        "deltaTime": 7,
        "channel": 0,
        "type": "channel",
        "noteNumber": 55,
        "velocity": 80,
        "subtype": "noteOn"
      },
      {
        "deltaTime": 113,
        "channel": 0,
        "type": "channel",
        "noteNumber": 55,
        "velocity": 0,
        "subtype": "noteOff"
      },
      {
        "deltaTime": 7,
        "channel": 0,
        "type": "channel",
        "noteNumber": 59,
        "velocity": 80,
        "subtype": "noteOn"
      },
      {
        "deltaTime": 113,
        "channel": 0,
        "type": "channel",
        "noteNumber": 59,
        "velocity": 0,
        "subtype": "noteOff"
      },
      {
        "deltaTime": 7,
        "channel": 0,
        "type": "channel",
        "noteNumber": 64,
        "velocity": 80,
        "subtype": "noteOn"
      },
      {
        "deltaTime": 113,
        "channel": 0,
        "type": "channel",
        "noteNumber": 64,
        "velocity": 0,
        "subtype": "noteOff"
      },
      {
        "deltaTime": 7,
        "channel": 0,
        "type": "channel",
        "noteNumber": 62,
        "velocity": 80,
        "subtype": "noteOn"
      },
      {
        "deltaTime": 113,
        "channel": 0,
        "type": "channel",
        "noteNumber": 62,
        "velocity": 0,
        "subtype": "noteOff"
      },
      {
        "deltaTime": 7,
        "channel": 0,
        "type": "channel",
        "noteNumber": 60,
        "velocity": 80,
        "subtype": "noteOn"
      },
      {
        "deltaTime": 113,
        "channel": 0,
        "type": "channel",
        "noteNumber": 60,
        "velocity": 0,
        "subtype": "noteOff"
      },
      {
        "deltaTime": 7,
        "channel": 0,
        "type": "channel",
        "noteNumber": 59,
        "velocity": 80,
        "subtype": "noteOn"
      },
      {
        "deltaTime": 113,
        "channel": 0,
        "type": "channel",
        "noteNumber": 59,
        "velocity": 0,
        "subtype": "noteOff"
      },
      {
        "deltaTime": 7,
        "channel": 0,
        "type": "channel",
        "noteNumber": 60,
        "velocity": 80,
        "subtype": "noteOn"
      },
      {
        "deltaTime": 113,
        "channel": 0,
        "type": "channel",
        "noteNumber": 60,
        "velocity": 0,
        "subtype": "noteOff"
      },
      {
        "deltaTime": 7,
        "channel": 0,
        "type": "channel",
        "noteNumber": 62,
        "velocity": 80,
        "subtype": "noteOn"
      },
      {
        "deltaTime": 113,
        "channel": 0,
        "type": "channel",
        "noteNumber": 62,
        "velocity": 0,
        "subtype": "noteOff"
      },
      {
        "deltaTime": 7,
        "channel": 0,
        "type": "channel",
        "noteNumber": 57,
        "velocity": 80,
        "subtype": "noteOn"
      },
      {
        "deltaTime": 113,
        "channel": 0,
        "type": "channel",
        "noteNumber": 57,
        "velocity": 0,
        "subtype": "noteOff"
      },
      {
        "deltaTime": 7,
        "channel": 0,
        "type": "channel",
        "noteNumber": 60,
        "velocity": 80,
        "subtype": "noteOn"
      },
      {
        "deltaTime": 113,
        "channel": 0,
        "type": "channel",
        "noteNumber": 60,
        "velocity": 0,
        "subtype": "noteOff"
      },
      {
        "deltaTime": 7,
        "channel": 0,
        "type": "channel",
        "noteNumber": 65,
        "velocity": 80,
        "subtype": "noteOn"
      },
      {
        "deltaTime": 113,
        "channel": 0,
        "type": "channel",
        "noteNumber": 65,
        "velocity": 0,
        "subtype": "noteOff"
      },
      {
        "deltaTime": 7,
        "channel": 0,
        "type": "channel",
        "noteNumber": 64,
        "velocity": 80,
        "subtype": "noteOn"
      },
      {
        "deltaTime": 113,
        "channel": 0,
        "type": "channel",
        "noteNumber": 64,
        "velocity": 0,
        "subtype": "noteOff"
      },
      {
        "deltaTime": 7,
        "channel": 0,
        "type": "channel",
        "noteNumber": 62,
        "velocity": 80,
        "subtype": "noteOn"
      },
      {
        "deltaTime": 113,
        "channel": 0,
        "type": "channel",
        "noteNumber": 62,
        "velocity": 0,
        "subtype": "noteOff"
      },
      {
        "deltaTime": 7,
        "channel": 0,
        "type": "channel",
        "noteNumber": 60,
        "velocity": 80,
        "subtype": "noteOn"
      },
      {
        "deltaTime": 113,
        "channel": 0,
        "type": "channel",
        "noteNumber": 60,
        "velocity": 0,
        "subtype": "noteOff"
      },
      {
        "deltaTime": 7,
        "channel": 0,
        "type": "channel",
        "noteNumber": 62,
        "velocity": 80,
        "subtype": "noteOn"
      },
      {
        "deltaTime": 113,
        "channel": 0,
        "type": "channel",
        "noteNumber": 62,
        "velocity": 0,
        "subtype": "noteOff"
      },
      {
        "deltaTime": 7,
        "channel": 0,
        "type": "channel",
        "noteNumber": 64,
        "velocity": 80,
        "subtype": "noteOn"
      },
      {
        "deltaTime": 113,
        "channel": 0,
        "type": "channel",
        "noteNumber": 64,
        "velocity": 0,
        "subtype": "noteOff"
      },
      {
        "deltaTime": 7,
        "channel": 0,
        "type": "channel",
        "noteNumber": 59,
        "velocity": 80,
        "subtype": "noteOn"
      },
      {
        "deltaTime": 113,
        "channel": 0,
        "type": "channel",
        "noteNumber": 59,
        "velocity": 0,
        "subtype": "noteOff"
      },
      {
        "deltaTime": 7,
        "channel": 0,
        "type": "channel",
        "noteNumber": 62,
        "velocity": 80,
        "subtype": "noteOn"
      },
      {
        "deltaTime": 113,
        "channel": 0,
        "type": "channel",
        "noteNumber": 62,
        "velocity": 0,
        "subtype": "noteOff"
      },
      {
        "deltaTime": 7,
        "channel": 0,
        "type": "channel",
        "noteNumber": 67,
        "velocity": 80,
        "subtype": "noteOn"
      },
      {
        "deltaTime": 113,
        "channel": 0,
        "type": "channel",
        "noteNumber": 67,
        "velocity": 0,
        "subtype": "noteOff"
      },
      {
        "deltaTime": 7,
        "channel": 0,
        "type": "channel",
        "noteNumber": 65,
        "velocity": 80,
        "subtype": "noteOn"
      },
      {
        "deltaTime": 113,
        "channel": 0,
        "type": "channel",
        "noteNumber": 65,
        "velocity": 0,
        "subtype": "noteOff"
      },
      {
        "deltaTime": 7,
        "channel": 0,
        "type": "channel",
        "noteNumber": 64,
        "velocity": 80,
        "subtype": "noteOn"
      },
      {
        "deltaTime": 113,
        "channel": 0,
        "type": "channel",
        "noteNumber": 64,
        "velocity": 0,
        "subtype": "noteOff"
      },
      {
        "deltaTime": 7,
        "channel": 0,
        "type": "channel",
        "noteNumber": 62,
        "velocity": 80,
        "subtype": "noteOn"
      },
      {
        "deltaTime": 113,
        "channel": 0,
        "type": "channel",
        "noteNumber": 62,
        "velocity": 0,
        "subtype": "noteOff"
      },
      {
        "deltaTime": 7,
        "channel": 0,
        "type": "channel",
        "noteNumber": 64,
        "velocity": 80,
        "subtype": "noteOn"
      },
      {
        "deltaTime": 113,
        "channel": 0,
        "type": "channel",
        "noteNumber": 64,
        "velocity": 0,
        "subtype": "noteOff"
      },
      {
        "deltaTime": 7,
        "channel": 0,
        "type": "channel",
        "noteNumber": 65,
        "velocity": 80,
        "subtype": "noteOn"
      },
      {
        "deltaTime": 113,
        "channel": 0,
        "type": "channel",
        "noteNumber": 65,
        "velocity": 0,
        "subtype": "noteOff"
      },
      {
        "deltaTime": 7,
        "channel": 0,
        "type": "channel",
        "noteNumber": 60,
        "velocity": 80,
        "subtype": "noteOn"
      },
      {
        "deltaTime": 113,
        "channel": 0,
        "type": "channel",
        "noteNumber": 60,
        "velocity": 0,
        "subtype": "noteOff"
      },
      {
        "deltaTime": 7,
        "channel": 0,
        "type": "channel",
        "noteNumber": 64,
        "velocity": 80,
        "subtype": "noteOn"
      },
      {
        "deltaTime": 113,
        "channel": 0,
        "type": "channel",
        "noteNumber": 64,
        "velocity": 0,
        "subtype": "noteOff"
      },
      {
        "deltaTime": 7,
        "channel": 0,
        "type": "channel",
        "noteNumber": 69,
        "velocity": 80,
        "subtype": "noteOn"
      },
      {
        "deltaTime": 113,
        "channel": 0,
        "type": "channel",
        "noteNumber": 69,
        "velocity": 0,
        "subtype": "noteOff"
      },
      {
        "deltaTime": 7,
        "channel": 0,
        "type": "channel",
        "noteNumber": 67,
        "velocity": 80,
        "subtype": "noteOn"
      },
      {
        "deltaTime": 113,
        "channel": 0,
        "type": "channel",
        "noteNumber": 67,
        "velocity": 0,
        "subtype": "noteOff"
      },
      {
        "deltaTime": 7,
        "channel": 0,
        "type": "channel",
        "noteNumber": 65,
        "velocity": 80,
        "subtype": "noteOn"
      },
      {
        "deltaTime": 113,
        "channel": 0,
        "type": "channel",
        "noteNumber": 65,
        "velocity": 0,
        "subtype": "noteOff"
      },
      {
        "deltaTime": 7,
        "channel": 0,
        "type": "channel",
        "noteNumber": 64,
        "velocity": 80,
        "subtype": "noteOn"
      },
      {
        "deltaTime": 113,
        "channel": 0,
        "type": "channel",
        "noteNumber": 64,
        "velocity": 0,
        "subtype": "noteOff"
      },
      {
        "deltaTime": 7,
        "channel": 0,
        "type": "channel",
        "noteNumber": 65,
        "velocity": 80,
        "subtype": "noteOn"
      },
      {
        "deltaTime": 113,
        "channel": 0,
        "type": "channel",
        "noteNumber": 65,
        "velocity": 0,
        "subtype": "noteOff"
      },
      {
        "deltaTime": 7,
        "channel": 0,
        "type": "channel",
        "noteNumber": 67,
        "velocity": 80,
        "subtype": "noteOn"
      },
      {
        "deltaTime": 113,
        "channel": 0,
        "type": "channel",
        "noteNumber": 67,
        "velocity": 0,
        "subtype": "noteOff"
      },
      {
        "deltaTime": 7,
        "channel": 0,
        "type": "channel",
        "noteNumber": 62,
        "velocity": 80,
        "subtype": "noteOn"
      },
      {
        "deltaTime": 113,
        "channel": 0,
        "type": "channel",
        "noteNumber": 62,
        "velocity": 0,
        "subtype": "noteOff"
      },
      {
        "deltaTime": 7,
        "channel": 0,
        "type": "channel",
        "noteNumber": 65,
        "velocity": 80,
        "subtype": "noteOn"
      },
      {
        "deltaTime": 113,
        "channel": 0,
        "type": "channel",
        "noteNumber": 65,
        "velocity": 0,
        "subtype": "noteOff"
      },
      {
        "deltaTime": 7,
        "channel": 0,
        "type": "channel",
        "noteNumber": 71,
        "velocity": 80,
        "subtype": "noteOn"
      },
      {
        "deltaTime": 113,
        "channel": 0,
        "type": "channel",
        "noteNumber": 71,
        "velocity": 0,
        "subtype": "noteOff"
      },
      {
        "deltaTime": 7,
        "channel": 0,
        "type": "channel",
        "noteNumber": 69,
        "velocity": 80,
        "subtype": "noteOn"
      },
      {
        "deltaTime": 113,
        "channel": 0,
        "type": "channel",
        "noteNumber": 69,
        "velocity": 0,
        "subtype": "noteOff"
      },
      {
        "deltaTime": 7,
        "channel": 0,
        "type": "channel",
        "noteNumber": 67,
        "velocity": 80,
        "subtype": "noteOn"
      },
      {
        "deltaTime": 113,
        "channel": 0,
        "type": "channel",
        "noteNumber": 67,
        "velocity": 0,
        "subtype": "noteOff"
      },
      {
        "deltaTime": 7,
        "channel": 0,
        "type": "channel",
        "noteNumber": 65,
        "velocity": 80,
        "subtype": "noteOn"
      },
      {
        "deltaTime": 113,
        "channel": 0,
        "type": "channel",
        "noteNumber": 65,
        "velocity": 0,
        "subtype": "noteOff"
      },
      {
        "deltaTime": 7,
        "channel": 0,
        "type": "channel",
        "noteNumber": 67,
        "velocity": 80,
        "subtype": "noteOn"
      },
      {
        "deltaTime": 113,
        "channel": 0,
        "type": "channel",
        "noteNumber": 67,
        "velocity": 0,
        "subtype": "noteOff"
      },
      {
        "deltaTime": 7,
        "channel": 0,
        "type": "channel",
        "noteNumber": 69,
        "velocity": 80,
        "subtype": "noteOn"
      },
      {
        "deltaTime": 113,
        "channel": 0,
        "type": "channel",
        "noteNumber": 69,
        "velocity": 0,
        "subtype": "noteOff"
      },
      {
        "deltaTime": 7,
        "channel": 0,
        "type": "channel",
        "noteNumber": 64,
        "velocity": 80,
        "subtype": "noteOn"
      },
      {
        "deltaTime": 113,
        "channel": 0,
        "type": "channel",
        "noteNumber": 64,
        "velocity": 0,
        "subtype": "noteOff"
      },
      {
        "deltaTime": 7,
        "channel": 0,
        "type": "channel",
        "noteNumber": 67,
        "velocity": 80,
        "subtype": "noteOn"
      },
      {
        "deltaTime": 113,
        "channel": 0,
        "type": "channel",
        "noteNumber": 67,
        "velocity": 0,
        "subtype": "noteOff"
      },
      {
        "deltaTime": 7,
        "channel": 0,
        "type": "channel",
        "noteNumber": 72,
        "velocity": 80,
        "subtype": "noteOn"
      },
      {
        "deltaTime": 113,
        "channel": 0,
        "type": "channel",
        "noteNumber": 72,
        "velocity": 0,
        "subtype": "noteOff"
      },
      {
        "deltaTime": 7,
        "channel": 0,
        "type": "channel",
        "noteNumber": 71,
        "velocity": 80,
        "subtype": "noteOn"
      },
      {
        "deltaTime": 113,
        "channel": 0,
        "type": "channel",
        "noteNumber": 71,
        "velocity": 0,
        "subtype": "noteOff"
      },
      {
        "deltaTime": 7,
        "channel": 0,
        "type": "channel",
        "noteNumber": 69,
        "velocity": 80,
        "subtype": "noteOn"
      },
      {
        "deltaTime": 113,
        "channel": 0,
        "type": "channel",
        "noteNumber": 69,
        "velocity": 0,
        "subtype": "noteOff"
      },
      {
        "deltaTime": 7,
        "channel": 0,
        "type": "channel",
        "noteNumber": 67,
        "velocity": 80,
        "subtype": "noteOn"
      },
      {
        "deltaTime": 113,
        "channel": 0,
        "type": "channel",
        "noteNumber": 67,
        "velocity": 0,
        "subtype": "noteOff"
      },
      {
        "deltaTime": 7,
        "channel": 0,
        "type": "channel",
        "noteNumber": 69,
        "velocity": 80,
        "subtype": "noteOn"
      },
      {
        "deltaTime": 113,
        "channel": 0,
        "type": "channel",
        "noteNumber": 69,
        "velocity": 0,
        "subtype": "noteOff"
      },
      {
        "deltaTime": 7,
        "channel": 0,
        "type": "channel",
        "noteNumber": 71,
        "velocity": 80,
        "subtype": "noteOn"
      },
      {
        "deltaTime": 113,
        "channel": 0,
        "type": "channel",
        "noteNumber": 71,
        "velocity": 0,
        "subtype": "noteOff"
      },
      {
        "deltaTime": 7,
        "channel": 0,
        "type": "channel",
        "noteNumber": 65,
        "velocity": 80,
        "subtype": "noteOn"
      },
      {
        "deltaTime": 113,
        "channel": 0,
        "type": "channel",
        "noteNumber": 65,
        "velocity": 0,
        "subtype": "noteOff"
      },
      {
        "deltaTime": 7,
        "channel": 0,
        "type": "channel",
        "noteNumber": 69,
        "velocity": 80,
        "subtype": "noteOn"
      },
      {
        "deltaTime": 113,
        "channel": 0,
        "type": "channel",
        "noteNumber": 69,
        "velocity": 0,
        "subtype": "noteOff"
      },
      {
        "deltaTime": 7,
        "channel": 0,
        "type": "channel",
        "noteNumber": 74,
        "velocity": 80,
        "subtype": "noteOn"
      },
      {
        "deltaTime": 113,
        "channel": 0,
        "type": "channel",
        "noteNumber": 74,
        "velocity": 0,
        "subtype": "noteOff"
      },
      {
        "deltaTime": 7,
        "channel": 0,
        "type": "channel",
        "noteNumber": 72,
        "velocity": 80,
        "subtype": "noteOn"
      },
      {
        "deltaTime": 113,
        "channel": 0,
        "type": "channel",
        "noteNumber": 72,
        "velocity": 0,
        "subtype": "noteOff"
      },
      {
        "deltaTime": 7,
        "channel": 0,
        "type": "channel",
        "noteNumber": 71,
        "velocity": 80,
        "subtype": "noteOn"
      },
      {
        "deltaTime": 113,
        "channel": 0,
        "type": "channel",
        "noteNumber": 71,
        "velocity": 0,
        "subtype": "noteOff"
      },
      {
        "deltaTime": 7,
        "channel": 0,
        "type": "channel",
        "noteNumber": 69,
        "velocity": 80,
        "subtype": "noteOn"
      },
      {
        "deltaTime": 113,
        "channel": 0,
        "type": "channel",
        "noteNumber": 69,
        "velocity": 0,
        "subtype": "noteOff"
      },
      {
        "deltaTime": 7,
        "channel": 0,
        "type": "channel",
        "noteNumber": 71,
        "velocity": 80,
        "subtype": "noteOn"
      },
      {
        "deltaTime": 113,
        "channel": 0,
        "type": "channel",
        "noteNumber": 71,
        "velocity": 0,
        "subtype": "noteOff"
      },
      {
        "deltaTime": 7,
        "channel": 0,
        "type": "channel",
        "noteNumber": 72,
        "velocity": 80,
        "subtype": "noteOn"
      },
      {
        "deltaTime": 113,
        "channel": 0,
        "type": "channel",
        "noteNumber": 72,
        "velocity": 0,
        "subtype": "noteOff"
      },
      {
        "deltaTime": 7,
        "channel": 0,
        "type": "channel",
        "noteNumber": 67,
        "velocity": 80,
        "subtype": "noteOn"
      },
      {
        "deltaTime": 113,
        "channel": 0,
        "type": "channel",
        "noteNumber": 67,
        "velocity": 0,
        "subtype": "noteOff"
      },
      {
        "deltaTime": 7,
        "channel": 0,
        "type": "channel",
        "noteNumber": 71,
        "velocity": 80,
        "subtype": "noteOn"
      },
      {
        "deltaTime": 113,
        "channel": 0,
        "type": "channel",
        "noteNumber": 71,
        "velocity": 0,
        "subtype": "noteOff"
      },
      {
        "deltaTime": 7,
        "channel": 0,
        "type": "channel",
        "noteNumber": 76,
        "velocity": 80,
        "subtype": "noteOn"
      },
      {
        "deltaTime": 113,
        "channel": 0,
        "type": "channel",
        "noteNumber": 76,
        "velocity": 0,
        "subtype": "noteOff"
      },
      {
        "deltaTime": 7,
        "channel": 0,
        "type": "channel",
        "noteNumber": 74,
        "velocity": 80,
        "subtype": "noteOn"
      },
      {
        "deltaTime": 113,
        "channel": 0,
        "type": "channel",
        "noteNumber": 74,
        "velocity": 0,
        "subtype": "noteOff"
      },
      {
        "deltaTime": 7,
        "channel": 0,
        "type": "channel",
        "noteNumber": 72,
        "velocity": 80,
        "subtype": "noteOn"
      },
      {
        "deltaTime": 113,
        "channel": 0,
        "type": "channel",
        "noteNumber": 72,
        "velocity": 0,
        "subtype": "noteOff"
      },
      {
        "deltaTime": 7,
        "channel": 0,
        "type": "channel",
        "noteNumber": 71,
        "velocity": 80,
        "subtype": "noteOn"
      },
      {
        "deltaTime": 113,
        "channel": 0,
        "type": "channel",
        "noteNumber": 71,
        "velocity": 0,
        "subtype": "noteOff"
      },
      {
        "deltaTime": 7,
        "channel": 0,
        "type": "channel",
        "noteNumber": 72,
        "velocity": 80,
        "subtype": "noteOn"
      },
      {
        "deltaTime": 113,
        "channel": 0,
        "type": "channel",
        "noteNumber": 72,
        "velocity": 0,
        "subtype": "noteOff"
      },
      {
        "deltaTime": 7,
        "channel": 0,
        "type": "channel",
        "noteNumber": 74,
        "velocity": 80,
        "subtype": "noteOn"
      },
      {
        "deltaTime": 113,
        "channel": 0,
        "type": "channel",
        "noteNumber": 74,
        "velocity": 0,
        "subtype": "noteOff"
      },
      {
        "deltaTime": 7,
        "channel": 0,
        "type": "channel",
        "noteNumber": 69,
        "velocity": 80,
        "subtype": "noteOn"
      },
      {
        "deltaTime": 113,
        "channel": 0,
        "type": "channel",
        "noteNumber": 69,
        "velocity": 0,
        "subtype": "noteOff"
      },
      {
        "deltaTime": 7,
        "channel": 0,
        "type": "channel",
        "noteNumber": 72,
        "velocity": 80,
        "subtype": "noteOn"
      },
      {
        "deltaTime": 113,
        "channel": 0,
        "type": "channel",
        "noteNumber": 72,
        "velocity": 0,
        "subtype": "noteOff"
      },
      {
        "deltaTime": 7,
        "channel": 0,
        "type": "channel",
        "noteNumber": 77,
        "velocity": 80,
        "subtype": "noteOn"
      },
      {
        "deltaTime": 113,
        "channel": 0,
        "type": "channel",
        "noteNumber": 77,
        "velocity": 0,
        "subtype": "noteOff"
      },
      {
        "deltaTime": 7,
        "channel": 0,
        "type": "channel",
        "noteNumber": 76,
        "velocity": 80,
        "subtype": "noteOn"
      },
      {
        "deltaTime": 113,
        "channel": 0,
        "type": "channel",
        "noteNumber": 76,
        "velocity": 0,
        "subtype": "noteOff"
      },
      {
        "deltaTime": 7,
        "channel": 0,
        "type": "channel",
        "noteNumber": 74,
        "velocity": 80,
        "subtype": "noteOn"
      },
      {
        "deltaTime": 113,
        "channel": 0,
        "type": "channel",
        "noteNumber": 74,
        "velocity": 0,
        "subtype": "noteOff"
      },
      {
        "deltaTime": 7,
        "channel": 0,
        "type": "channel",
        "noteNumber": 72,
        "velocity": 80,
        "subtype": "noteOn"
      },
      {
        "deltaTime": 113,
        "channel": 0,
        "type": "channel",
        "noteNumber": 72,
        "velocity": 0,
        "subtype": "noteOff"
      },
      {
        "deltaTime": 7,
        "channel": 0,
        "type": "channel",
        "noteNumber": 74,
        "velocity": 80,
        "subtype": "noteOn"
      },
      {
        "deltaTime": 113,
        "channel": 0,
        "type": "channel",
        "noteNumber": 74,
        "velocity": 0,
        "subtype": "noteOff"
      },
      {
        "deltaTime": 7,
        "channel": 0,
        "type": "channel",
        "noteNumber": 76,
        "velocity": 80,
        "subtype": "noteOn"
      },
      {
        "deltaTime": 113,
        "channel": 0,
        "type": "channel",
        "noteNumber": 76,
        "velocity": 0,
        "subtype": "noteOff"
      },
      {
        "deltaTime": 7,
        "channel": 0,
        "type": "channel",
        "noteNumber": 71,
        "velocity": 80,
        "subtype": "noteOn"
      },
      {
        "deltaTime": 113,
        "channel": 0,
        "type": "channel",
        "noteNumber": 71,
        "velocity": 0,
        "subtype": "noteOff"
      },
      {
        "deltaTime": 7,
        "channel": 0,
        "type": "channel",
        "noteNumber": 74,
        "velocity": 80,
        "subtype": "noteOn"
      },
      {
        "deltaTime": 113,
        "channel": 0,
        "type": "channel",
        "noteNumber": 74,
        "velocity": 0,
        "subtype": "noteOff"
      },
      {
        "deltaTime": 7,
        "channel": 0,
        "type": "channel",
        "noteNumber": 79,
        "velocity": 80,
        "subtype": "noteOn"
      },
      {
        "deltaTime": 113,
        "channel": 0,
        "type": "channel",
        "noteNumber": 79,
        "velocity": 0,
        "subtype": "noteOff"
      },
      {
        "deltaTime": 7,
        "channel": 0,
        "type": "channel",
        "noteNumber": 77,
        "velocity": 80,
        "subtype": "noteOn"
      },
      {
        "deltaTime": 113,
        "channel": 0,
        "type": "channel",
        "noteNumber": 77,
        "velocity": 0,
        "subtype": "noteOff"
      },
      {
        "deltaTime": 7,
        "channel": 0,
        "type": "channel",
        "noteNumber": 76,
        "velocity": 80,
        "subtype": "noteOn"
      },
      {
        "deltaTime": 113,
        "channel": 0,
        "type": "channel",
        "noteNumber": 76,
        "velocity": 0,
        "subtype": "noteOff"
      },
      {
        "deltaTime": 7,
        "channel": 0,
        "type": "channel",
        "noteNumber": 74,
        "velocity": 80,
        "subtype": "noteOn"
      },
      {
        "deltaTime": 113,
        "channel": 0,
        "type": "channel",
        "noteNumber": 74,
        "velocity": 0,
        "subtype": "noteOff"
      },
      {
        "deltaTime": 7,
        "channel": 0,
        "type": "channel",
        "noteNumber": 76,
        "velocity": 80,
        "subtype": "noteOn"
      },
      {
        "deltaTime": 113,
        "channel": 0,
        "type": "channel",
        "noteNumber": 76,
        "velocity": 0,
        "subtype": "noteOff"
      },
      {
        "deltaTime": 7,
        "channel": 0,
        "type": "channel",
        "noteNumber": 77,
        "velocity": 80,
        "subtype": "noteOn"
      },
      {
        "deltaTime": 113,
        "channel": 0,
        "type": "channel",
        "noteNumber": 77,
        "velocity": 0,
        "subtype": "noteOff"
      },
      {
        "deltaTime": 7,
        "channel": 0,
        "type": "channel",
        "noteNumber": 79,
        "velocity": 80,
        "subtype": "noteOn"
      },
      {
        "deltaTime": 113,
        "channel": 0,
        "type": "channel",
        "noteNumber": 79,
        "velocity": 0,
        "subtype": "noteOff"
      },
      {
        "deltaTime": 7,
        "channel": 0,
        "type": "channel",
        "noteNumber": 74,
        "velocity": 80,
        "subtype": "noteOn"
      },
      {
        "deltaTime": 113,
        "channel": 0,
        "type": "channel",
        "noteNumber": 74,
        "velocity": 0,
        "subtype": "noteOff"
      },
      {
        "deltaTime": 7,
        "channel": 0,
        "type": "channel",
        "noteNumber": 71,
        "velocity": 80,
        "subtype": "noteOn"
      },
      {
        "deltaTime": 113,
        "channel": 0,
        "type": "channel",
        "noteNumber": 71,
        "velocity": 0,
        "subtype": "noteOff"
      },
      {
        "deltaTime": 7,
        "channel": 0,
        "type": "channel",
        "noteNumber": 72,
        "velocity": 80,
        "subtype": "noteOn"
      },
      {
        "deltaTime": 113,
        "channel": 0,
        "type": "channel",
        "noteNumber": 72,
        "velocity": 0,
        "subtype": "noteOff"
      },
      {
        "deltaTime": 7,
        "channel": 0,
        "type": "channel",
        "noteNumber": 74,
        "velocity": 80,
        "subtype": "noteOn"
      },
      {
        "deltaTime": 113,
        "channel": 0,
        "type": "channel",
        "noteNumber": 74,
        "velocity": 0,
        "subtype": "noteOff"
      },
      {
        "deltaTime": 7,
        "channel": 0,
        "type": "channel",
        "noteNumber": 76,
        "velocity": 80,
        "subtype": "noteOn"
      },
      {
        "deltaTime": 113,
        "channel": 0,
        "type": "channel",
        "noteNumber": 76,
        "velocity": 0,
        "subtype": "noteOff"
      },
      {
        "deltaTime": 7,
        "channel": 0,
        "type": "channel",
        "noteNumber": 74,
        "velocity": 80,
        "subtype": "noteOn"
      },
      {
        "deltaTime": 113,
        "channel": 0,
        "type": "channel",
        "noteNumber": 74,
        "velocity": 0,
        "subtype": "noteOff"
      },
      {
        "deltaTime": 7,
        "channel": 0,
        "type": "channel",
        "noteNumber": 72,
        "velocity": 80,
        "subtype": "noteOn"
      },
      {
        "deltaTime": 113,
        "channel": 0,
        "type": "channel",
        "noteNumber": 72,
        "velocity": 0,
        "subtype": "noteOff"
      },
      {
        "deltaTime": 7,
        "channel": 0,
        "type": "channel",
        "noteNumber": 77,
        "velocity": 80,
        "subtype": "noteOn"
      },
      {
        "deltaTime": 113,
        "channel": 0,
        "type": "channel",
        "noteNumber": 77,
        "velocity": 0,
        "subtype": "noteOff"
      },
      {
        "deltaTime": 7,
        "channel": 0,
        "type": "channel",
        "noteNumber": 72,
        "velocity": 80,
        "subtype": "noteOn"
      },
      {
        "deltaTime": 113,
        "channel": 0,
        "type": "channel",
        "noteNumber": 72,
        "velocity": 0,
        "subtype": "noteOff"
      },
      {
        "deltaTime": 7,
        "channel": 0,
        "type": "channel",
        "noteNumber": 69,
        "velocity": 80,
        "subtype": "noteOn"
      },
      {
        "deltaTime": 113,
        "channel": 0,
        "type": "channel",
        "noteNumber": 69,
        "velocity": 0,
        "subtype": "noteOff"
      },
      {
        "deltaTime": 7,
        "channel": 0,
        "type": "channel",
        "noteNumber": 71,
        "velocity": 80,
        "subtype": "noteOn"
      },
      {
        "deltaTime": 113,
        "channel": 0,
        "type": "channel",
        "noteNumber": 71,
        "velocity": 0,
        "subtype": "noteOff"
      },
      {
        "deltaTime": 7,
        "channel": 0,
        "type": "channel",
        "noteNumber": 72,
        "velocity": 80,
        "subtype": "noteOn"
      },
      {
        "deltaTime": 113,
        "channel": 0,
        "type": "channel",
        "noteNumber": 72,
        "velocity": 0,
        "subtype": "noteOff"
      },
      {
        "deltaTime": 7,
        "channel": 0,
        "type": "channel",
        "noteNumber": 74,
        "velocity": 80,
        "subtype": "noteOn"
      },
      {
        "deltaTime": 113,
        "channel": 0,
        "type": "channel",
        "noteNumber": 74,
        "velocity": 0,
        "subtype": "noteOff"
      },
      {
        "deltaTime": 7,
        "channel": 0,
        "type": "channel",
        "noteNumber": 72,
        "velocity": 80,
        "subtype": "noteOn"
      },
      {
        "deltaTime": 113,
        "channel": 0,
        "type": "channel",
        "noteNumber": 72,
        "velocity": 0,
        "subtype": "noteOff"
      },
      {
        "deltaTime": 7,
        "channel": 0,
        "type": "channel",
        "noteNumber": 71,
        "velocity": 80,
        "subtype": "noteOn"
      },
      {
        "deltaTime": 113,
        "channel": 0,
        "type": "channel",
        "noteNumber": 71,
        "velocity": 0,
        "subtype": "noteOff"
      },
      {
        "deltaTime": 7,
        "channel": 0,
        "type": "channel",
        "noteNumber": 76,
        "velocity": 80,
        "subtype": "noteOn"
      },
      {
        "deltaTime": 113,
        "channel": 0,
        "type": "channel",
        "noteNumber": 76,
        "velocity": 0,
        "subtype": "noteOff"
      },
      {
        "deltaTime": 7,
        "channel": 0,
        "type": "channel",
        "noteNumber": 71,
        "velocity": 80,
        "subtype": "noteOn"
      },
      {
        "deltaTime": 113,
        "channel": 0,
        "type": "channel",
        "noteNumber": 71,
        "velocity": 0,
        "subtype": "noteOff"
      },
      {
        "deltaTime": 7,
        "channel": 0,
        "type": "channel",
        "noteNumber": 67,
        "velocity": 80,
        "subtype": "noteOn"
      },
      {
        "deltaTime": 113,
        "channel": 0,
        "type": "channel",
        "noteNumber": 67,
        "velocity": 0,
        "subtype": "noteOff"
      },
      {
        "deltaTime": 7,
        "channel": 0,
        "type": "channel",
        "noteNumber": 69,
        "velocity": 80,
        "subtype": "noteOn"
      },
      {
        "deltaTime": 113,
        "channel": 0,
        "type": "channel",
        "noteNumber": 69,
        "velocity": 0,
        "subtype": "noteOff"
      },
      {
        "deltaTime": 7,
        "channel": 0,
        "type": "channel",
        "noteNumber": 71,
        "velocity": 80,
        "subtype": "noteOn"
      },
      {
        "deltaTime": 113,
        "channel": 0,
        "type": "channel",
        "noteNumber": 71,
        "velocity": 0,
        "subtype": "noteOff"
      },
      {
        "deltaTime": 7,
        "channel": 0,
        "type": "channel",
        "noteNumber": 72,
        "velocity": 80,
        "subtype": "noteOn"
      },
      {
        "deltaTime": 113,
        "channel": 0,
        "type": "channel",
        "noteNumber": 72,
        "velocity": 0,
        "subtype": "noteOff"
      },
      {
        "deltaTime": 7,
        "channel": 0,
        "type": "channel",
        "noteNumber": 71,
        "velocity": 80,
        "subtype": "noteOn"
      },
      {
        "deltaTime": 113,
        "channel": 0,
        "type": "channel",
        "noteNumber": 71,
        "velocity": 0,
        "subtype": "noteOff"
      },
      {
        "deltaTime": 7,
        "channel": 0,
        "type": "channel",
        "noteNumber": 69,
        "velocity": 80,
        "subtype": "noteOn"
      },
      {
        "deltaTime": 113,
        "channel": 0,
        "type": "channel",
        "noteNumber": 69,
        "velocity": 0,
        "subtype": "noteOff"
      },
      {
        "deltaTime": 7,
        "channel": 0,
        "type": "channel",
        "noteNumber": 74,
        "velocity": 80,
        "subtype": "noteOn"
      },
      {
        "deltaTime": 113,
        "channel": 0,
        "type": "channel",
        "noteNumber": 74,
        "velocity": 0,
        "subtype": "noteOff"
      },
      {
        "deltaTime": 7,
        "channel": 0,
        "type": "channel",
        "noteNumber": 69,
        "velocity": 80,
        "subtype": "noteOn"
      },
      {
        "deltaTime": 113,
        "channel": 0,
        "type": "channel",
        "noteNumber": 69,
        "velocity": 0,
        "subtype": "noteOff"
      },
      {
        "deltaTime": 7,
        "channel": 0,
        "type": "channel",
        "noteNumber": 65,
        "velocity": 80,
        "subtype": "noteOn"
      },
      {
        "deltaTime": 113,
        "channel": 0,
        "type": "channel",
        "noteNumber": 65,
        "velocity": 0,
        "subtype": "noteOff"
      },
      {
        "deltaTime": 7,
        "channel": 0,
        "type": "channel",
        "noteNumber": 67,
        "velocity": 80,
        "subtype": "noteOn"
      },
      {
        "deltaTime": 113,
        "channel": 0,
        "type": "channel",
        "noteNumber": 67,
        "velocity": 0,
        "subtype": "noteOff"
      },
      {
        "deltaTime": 7,
        "channel": 0,
        "type": "channel",
        "noteNumber": 69,
        "velocity": 80,
        "subtype": "noteOn"
      },
      {
        "deltaTime": 113,
        "channel": 0,
        "type": "channel",
        "noteNumber": 69,
        "velocity": 0,
        "subtype": "noteOff"
      },
      {
        "deltaTime": 7,
        "channel": 0,
        "type": "channel",
        "noteNumber": 71,
        "velocity": 80,
        "subtype": "noteOn"
      },
      {
        "deltaTime": 113,
        "channel": 0,
        "type": "channel",
        "noteNumber": 71,
        "velocity": 0,
        "subtype": "noteOff"
      },
      {
        "deltaTime": 7,
        "channel": 0,
        "type": "channel",
        "noteNumber": 69,
        "velocity": 80,
        "subtype": "noteOn"
      },
      {
        "deltaTime": 113,
        "channel": 0,
        "type": "channel",
        "noteNumber": 69,
        "velocity": 0,
        "subtype": "noteOff"
      },
      {
        "deltaTime": 7,
        "channel": 0,
        "type": "channel",
        "noteNumber": 67,
        "velocity": 80,
        "subtype": "noteOn"
      },
      {
        "deltaTime": 113,
        "channel": 0,
        "type": "channel",
        "noteNumber": 67,
        "velocity": 0,
        "subtype": "noteOff"
      },
      {
        "deltaTime": 7,
        "channel": 0,
        "type": "channel",
        "noteNumber": 72,
        "velocity": 80,
        "subtype": "noteOn"
      },
      {
        "deltaTime": 113,
        "channel": 0,
        "type": "channel",
        "noteNumber": 72,
        "velocity": 0,
        "subtype": "noteOff"
      },
      {
        "deltaTime": 7,
        "channel": 0,
        "type": "channel",
        "noteNumber": 67,
        "velocity": 80,
        "subtype": "noteOn"
      },
      {
        "deltaTime": 113,
        "channel": 0,
        "type": "channel",
        "noteNumber": 67,
        "velocity": 0,
        "subtype": "noteOff"
      },
      {
        "deltaTime": 7,
        "channel": 0,
        "type": "channel",
        "noteNumber": 64,
        "velocity": 80,
        "subtype": "noteOn"
      },
      {
        "deltaTime": 113,
        "channel": 0,
        "type": "channel",
        "noteNumber": 64,
        "velocity": 0,
        "subtype": "noteOff"
      },
      {
        "deltaTime": 7,
        "channel": 0,
        "type": "channel",
        "noteNumber": 65,
        "velocity": 80,
        "subtype": "noteOn"
      },
      {
        "deltaTime": 113,
        "channel": 0,
        "type": "channel",
        "noteNumber": 65,
        "velocity": 0,
        "subtype": "noteOff"
      },
      {
        "deltaTime": 7,
        "channel": 0,
        "type": "channel",
        "noteNumber": 67,
        "velocity": 80,
        "subtype": "noteOn"
      },
      {
        "deltaTime": 113,
        "channel": 0,
        "type": "channel",
        "noteNumber": 67,
        "velocity": 0,
        "subtype": "noteOff"
      },
      {
        "deltaTime": 7,
        "channel": 0,
        "type": "channel",
        "noteNumber": 69,
        "velocity": 80,
        "subtype": "noteOn"
      },
      {
        "deltaTime": 113,
        "channel": 0,
        "type": "channel",
        "noteNumber": 69,
        "velocity": 0,
        "subtype": "noteOff"
      },
      {
        "deltaTime": 7,
        "channel": 0,
        "type": "channel",
        "noteNumber": 67,
        "velocity": 80,
        "subtype": "noteOn"
      },
      {
        "deltaTime": 113,
        "channel": 0,
        "type": "channel",
        "noteNumber": 67,
        "velocity": 0,
        "subtype": "noteOff"
      },
      {
        "deltaTime": 7,
        "channel": 0,
        "type": "channel",
        "noteNumber": 65,
        "velocity": 80,
        "subtype": "noteOn"
      },
      {
        "deltaTime": 113,
        "channel": 0,
        "type": "channel",
        "noteNumber": 65,
        "velocity": 0,
        "subtype": "noteOff"
      },
      {
        "deltaTime": 7,
        "channel": 0,
        "type": "channel",
        "noteNumber": 71,
        "velocity": 80,
        "subtype": "noteOn"
      },
      {
        "deltaTime": 113,
        "channel": 0,
        "type": "channel",
        "noteNumber": 71,
        "velocity": 0,
        "subtype": "noteOff"
      },
      {
        "deltaTime": 7,
        "channel": 0,
        "type": "channel",
        "noteNumber": 65,
        "velocity": 80,
        "subtype": "noteOn"
      },
      {
        "deltaTime": 113,
        "channel": 0,
        "type": "channel",
        "noteNumber": 65,
        "velocity": 0,
        "subtype": "noteOff"
      },
      {
        "deltaTime": 7,
        "channel": 0,
        "type": "channel",
        "noteNumber": 62,
        "velocity": 80,
        "subtype": "noteOn"
      },
      {
        "deltaTime": 113,
        "channel": 0,
        "type": "channel",
        "noteNumber": 62,
        "velocity": 0,
        "subtype": "noteOff"
      },
      {
        "deltaTime": 7,
        "channel": 0,
        "type": "channel",
        "noteNumber": 64,
        "velocity": 80,
        "subtype": "noteOn"
      },
      {
        "deltaTime": 113,
        "channel": 0,
        "type": "channel",
        "noteNumber": 64,
        "velocity": 0,
        "subtype": "noteOff"
      },
      {
        "deltaTime": 7,
        "channel": 0,
        "type": "channel",
        "noteNumber": 65,
        "velocity": 80,
        "subtype": "noteOn"
      },
      {
        "deltaTime": 113,
        "channel": 0,
        "type": "channel",
        "noteNumber": 65,
        "velocity": 0,
        "subtype": "noteOff"
      },
      {
        "deltaTime": 7,
        "channel": 0,
        "type": "channel",
        "noteNumber": 67,
        "velocity": 80,
        "subtype": "noteOn"
      },
      {
        "deltaTime": 113,
        "channel": 0,
        "type": "channel",
        "noteNumber": 67,
        "velocity": 0,
        "subtype": "noteOff"
      },
      {
        "deltaTime": 7,
        "channel": 0,
        "type": "channel",
        "noteNumber": 65,
        "velocity": 80,
        "subtype": "noteOn"
      },
      {
        "deltaTime": 113,
        "channel": 0,
        "type": "channel",
        "noteNumber": 65,
        "velocity": 0,
        "subtype": "noteOff"
      },
      {
        "deltaTime": 7,
        "channel": 0,
        "type": "channel",
        "noteNumber": 64,
        "velocity": 80,
        "subtype": "noteOn"
      },
      {
        "deltaTime": 113,
        "channel": 0,
        "type": "channel",
        "noteNumber": 64,
        "velocity": 0,
        "subtype": "noteOff"
      },
      {
        "deltaTime": 7,
        "channel": 0,
        "type": "channel",
        "noteNumber": 69,
        "velocity": 80,
        "subtype": "noteOn"
      },
      {
        "deltaTime": 113,
        "channel": 0,
        "type": "channel",
        "noteNumber": 69,
        "velocity": 0,
        "subtype": "noteOff"
      },
      {
        "deltaTime": 7,
        "channel": 0,
        "type": "channel",
        "noteNumber": 64,
        "velocity": 80,
        "subtype": "noteOn"
      },
      {
        "deltaTime": 113,
        "channel": 0,
        "type": "channel",
        "noteNumber": 64,
        "velocity": 0,
        "subtype": "noteOff"
      },
      {
        "deltaTime": 7,
        "channel": 0,
        "type": "channel",
        "noteNumber": 60,
        "velocity": 80,
        "subtype": "noteOn"
      },
      {
        "deltaTime": 113,
        "channel": 0,
        "type": "channel",
        "noteNumber": 60,
        "velocity": 0,
        "subtype": "noteOff"
      },
      {
        "deltaTime": 7,
        "channel": 0,
        "type": "channel",
        "noteNumber": 62,
        "velocity": 80,
        "subtype": "noteOn"
      },
      {
        "deltaTime": 113,
        "channel": 0,
        "type": "channel",
        "noteNumber": 62,
        "velocity": 0,
        "subtype": "noteOff"
      },
      {
        "deltaTime": 7,
        "channel": 0,
        "type": "channel",
        "noteNumber": 64,
        "velocity": 80,
        "subtype": "noteOn"
      },
      {
        "deltaTime": 113,
        "channel": 0,
        "type": "channel",
        "noteNumber": 64,
        "velocity": 0,
        "subtype": "noteOff"
      },
      {
        "deltaTime": 7,
        "channel": 0,
        "type": "channel",
        "noteNumber": 65,
        "velocity": 80,
        "subtype": "noteOn"
      },
      {
        "deltaTime": 113,
        "channel": 0,
        "type": "channel",
        "noteNumber": 65,
        "velocity": 0,
        "subtype": "noteOff"
      },
      {
        "deltaTime": 7,
        "channel": 0,
        "type": "channel",
        "noteNumber": 64,
        "velocity": 80,
        "subtype": "noteOn"
      },
      {
        "deltaTime": 113,
        "channel": 0,
        "type": "channel",
        "noteNumber": 64,
        "velocity": 0,
        "subtype": "noteOff"
      },
      {
        "deltaTime": 7,
        "channel": 0,
        "type": "channel",
        "noteNumber": 62,
        "velocity": 80,
        "subtype": "noteOn"
      },
      {
        "deltaTime": 113,
        "channel": 0,
        "type": "channel",
        "noteNumber": 62,
        "velocity": 0,
        "subtype": "noteOff"
      },
      {
        "deltaTime": 7,
        "channel": 0,
        "type": "channel",
        "noteNumber": 67,
        "velocity": 80,
        "subtype": "noteOn"
      },
      {
        "deltaTime": 113,
        "channel": 0,
        "type": "channel",
        "noteNumber": 67,
        "velocity": 0,
        "subtype": "noteOff"
      },
      {
        "deltaTime": 7,
        "channel": 0,
        "type": "channel",
        "noteNumber": 62,
        "velocity": 80,
        "subtype": "noteOn"
      },
      {
        "deltaTime": 113,
        "channel": 0,
        "type": "channel",
        "noteNumber": 62,
        "velocity": 0,
        "subtype": "noteOff"
      },
      {
        "deltaTime": 7,
        "channel": 0,
        "type": "channel",
        "noteNumber": 59,
        "velocity": 80,
        "subtype": "noteOn"
      },
      {
        "deltaTime": 113,
        "channel": 0,
        "type": "channel",
        "noteNumber": 59,
        "velocity": 0,
        "subtype": "noteOff"
      },
      {
        "deltaTime": 7,
        "channel": 0,
        "type": "channel",
        "noteNumber": 60,
        "velocity": 80,
        "subtype": "noteOn"
      },
      {
        "deltaTime": 113,
        "channel": 0,
        "type": "channel",
        "noteNumber": 60,
        "velocity": 0,
        "subtype": "noteOff"
      },
      {
        "deltaTime": 7,
        "channel": 0,
        "type": "channel",
        "noteNumber": 62,
        "velocity": 80,
        "subtype": "noteOn"
      },
      {
        "deltaTime": 113,
        "channel": 0,
        "type": "channel",
        "noteNumber": 62,
        "velocity": 0,
        "subtype": "noteOff"
      },
      {
        "deltaTime": 7,
        "channel": 0,
        "type": "channel",
        "noteNumber": 64,
        "velocity": 80,
        "subtype": "noteOn"
      },
      {
        "deltaTime": 113,
        "channel": 0,
        "type": "channel",
        "noteNumber": 64,
        "velocity": 0,
        "subtype": "noteOff"
      },
      {
        "deltaTime": 7,
        "channel": 0,
        "type": "channel",
        "noteNumber": 62,
        "velocity": 80,
        "subtype": "noteOn"
      },
      {
        "deltaTime": 113,
        "channel": 0,
        "type": "channel",
        "noteNumber": 62,
        "velocity": 0,
        "subtype": "noteOff"
      },
      {
        "deltaTime": 7,
        "channel": 0,
        "type": "channel",
        "noteNumber": 60,
        "velocity": 80,
        "subtype": "noteOn"
      },
      {
        "deltaTime": 113,
        "channel": 0,
        "type": "channel",
        "noteNumber": 60,
        "velocity": 0,
        "subtype": "noteOff"
      },
      {
        "deltaTime": 7,
        "channel": 0,
        "type": "channel",
        "noteNumber": 65,
        "velocity": 80,
        "subtype": "noteOn"
      },
      {
        "deltaTime": 113,
        "channel": 0,
        "type": "channel",
        "noteNumber": 65,
        "velocity": 0,
        "subtype": "noteOff"
      },
      {
        "deltaTime": 7,
        "channel": 0,
        "type": "channel",
        "noteNumber": 60,
        "velocity": 80,
        "subtype": "noteOn"
      },
      {
        "deltaTime": 113,
        "channel": 0,
        "type": "channel",
        "noteNumber": 60,
        "velocity": 0,
        "subtype": "noteOff"
      },
      {
        "deltaTime": 7,
        "channel": 0,
        "type": "channel",
        "noteNumber": 57,
        "velocity": 80,
        "subtype": "noteOn"
      },
      {
        "deltaTime": 113,
        "channel": 0,
        "type": "channel",
        "noteNumber": 57,
        "velocity": 0,
        "subtype": "noteOff"
      },
      {
        "deltaTime": 7,
        "channel": 0,
        "type": "channel",
        "noteNumber": 59,
        "velocity": 80,
        "subtype": "noteOn"
      },
      {
        "deltaTime": 113,
        "channel": 0,
        "type": "channel",
        "noteNumber": 59,
        "velocity": 0,
        "subtype": "noteOff"
      },
      {
        "deltaTime": 7,
        "channel": 0,
        "type": "channel",
        "noteNumber": 60,
        "velocity": 80,
        "subtype": "noteOn"
      },
      {
        "deltaTime": 113,
        "channel": 0,
        "type": "channel",
        "noteNumber": 60,
        "velocity": 0,
        "subtype": "noteOff"
      },
      {
        "deltaTime": 7,
        "channel": 0,
        "type": "channel",
        "noteNumber": 62,
        "velocity": 80,
        "subtype": "noteOn"
      },
      {
        "deltaTime": 113,
        "channel": 0,
        "type": "channel",
        "noteNumber": 62,
        "velocity": 0,
        "subtype": "noteOff"
      },
      {
        "deltaTime": 7,
        "channel": 0,
        "type": "channel",
        "noteNumber": 60,
        "velocity": 80,
        "subtype": "noteOn"
      },
      {
        "deltaTime": 113,
        "channel": 0,
        "type": "channel",
        "noteNumber": 60,
        "velocity": 0,
        "subtype": "noteOff"
      },
      {
        "deltaTime": 7,
        "channel": 0,
        "type": "channel",
        "noteNumber": 59,
        "velocity": 80,
        "subtype": "noteOn"
      },
      {
        "deltaTime": 113,
        "channel": 0,
        "type": "channel",
        "noteNumber": 59,
        "velocity": 0,
        "subtype": "noteOff"
      },
      {
        "deltaTime": 7,
        "channel": 0,
        "type": "channel",
        "noteNumber": 64,
        "velocity": 80,
        "subtype": "noteOn"
      },
      {
        "deltaTime": 113,
        "channel": 0,
        "type": "channel",
        "noteNumber": 64,
        "velocity": 0,
        "subtype": "noteOff"
      },
      {
        "deltaTime": 7,
        "channel": 0,
        "type": "channel",
        "noteNumber": 59,
        "velocity": 80,
        "subtype": "noteOn"
      },
      {
        "deltaTime": 113,
        "channel": 0,
        "type": "channel",
        "noteNumber": 59,
        "velocity": 0,
        "subtype": "noteOff"
      },
      {
        "deltaTime": 7,
        "channel": 0,
        "type": "channel",
        "noteNumber": 55,
        "velocity": 80,
        "subtype": "noteOn"
      },
      {
        "deltaTime": 113,
        "channel": 0,
        "type": "channel",
        "noteNumber": 55,
        "velocity": 0,
        "subtype": "noteOff"
      },
      {
        "deltaTime": 7,
        "channel": 0,
        "type": "channel",
        "noteNumber": 57,
        "velocity": 80,
        "subtype": "noteOn"
      },
      {
        "deltaTime": 113,
        "channel": 0,
        "type": "channel",
        "noteNumber": 57,
        "velocity": 0,
        "subtype": "noteOff"
      },
      {
        "deltaTime": 7,
        "channel": 0,
        "type": "channel",
        "noteNumber": 59,
        "velocity": 80,
        "subtype": "noteOn"
      },
      {
        "deltaTime": 113,
        "channel": 0,
        "type": "channel",
        "noteNumber": 59,
        "velocity": 0,
        "subtype": "noteOff"
      },
      {
        "deltaTime": 7,
        "channel": 0,
        "type": "channel",
        "noteNumber": 60,
        "velocity": 80,
        "subtype": "noteOn"
      },
      {
        "deltaTime": 113,
        "channel": 0,
        "type": "channel",
        "noteNumber": 60,
        "velocity": 0,
        "subtype": "noteOff"
      },
      {
        "deltaTime": 7,
        "channel": 0,
        "type": "channel",
        "noteNumber": 59,
        "velocity": 80,
        "subtype": "noteOn"
      },
      {
        "deltaTime": 113,
        "channel": 0,
        "type": "channel",
        "noteNumber": 59,
        "velocity": 0,
        "subtype": "noteOff"
      },
      {
        "deltaTime": 7,
        "channel": 0,
        "type": "channel",
        "noteNumber": 57,
        "velocity": 80,
        "subtype": "noteOn"
      },
      {
        "deltaTime": 113,
        "channel": 0,
        "type": "channel",
        "noteNumber": 57,
        "velocity": 0,
        "subtype": "noteOff"
      },
      {
        "deltaTime": 7,
        "channel": 0,
        "type": "channel",
        "noteNumber": 62,
        "velocity": 80,
        "subtype": "noteOn"
      },
      {
        "deltaTime": 113,
        "channel": 0,
        "type": "channel",
        "noteNumber": 62,
        "velocity": 0,
        "subtype": "noteOff"
      },
      {
        "deltaTime": 7,
        "channel": 0,
        "type": "channel",
        "noteNumber": 57,
        "velocity": 80,
        "subtype": "noteOn"
      },
      {
        "deltaTime": 113,
        "channel": 0,
        "type": "channel",
        "noteNumber": 57,
        "velocity": 0,
        "subtype": "noteOff"
      },
      {
        "deltaTime": 7,
        "channel": 0,
        "type": "channel",
        "noteNumber": 53,
        "velocity": 80,
        "subtype": "noteOn"
      },
      {
        "deltaTime": 113,
        "channel": 0,
        "type": "channel",
        "noteNumber": 53,
        "velocity": 0,
        "subtype": "noteOff"
      },
      {
        "deltaTime": 7,
        "channel": 0,
        "type": "channel",
        "noteNumber": 55,
        "velocity": 80,
        "subtype": "noteOn"
      },
      {
        "deltaTime": 113,
        "channel": 0,
        "type": "channel",
        "noteNumber": 55,
        "velocity": 0,
        "subtype": "noteOff"
      },
      {
        "deltaTime": 7,
        "channel": 0,
        "type": "channel",
        "noteNumber": 57,
        "velocity": 80,
        "subtype": "noteOn"
      },
      {
        "deltaTime": 113,
        "channel": 0,
        "type": "channel",
        "noteNumber": 57,
        "velocity": 0,
        "subtype": "noteOff"
      },
      {
        "deltaTime": 7,
        "channel": 0,
        "type": "channel",
        "noteNumber": 59,
        "velocity": 80,
        "subtype": "noteOn"
      },
      {
        "deltaTime": 113,
        "channel": 0,
        "type": "channel",
        "noteNumber": 59,
        "velocity": 0,
        "subtype": "noteOff"
      },
      {
        "deltaTime": 7,
        "channel": 0,
        "type": "channel",
        "noteNumber": 57,
        "velocity": 80,
        "subtype": "noteOn"
      },
      {
        "deltaTime": 113,
        "channel": 0,
        "type": "channel",
        "noteNumber": 57,
        "velocity": 0,
        "subtype": "noteOff"
      },
      {
        "deltaTime": 7,
        "channel": 0,
        "type": "channel",
        "noteNumber": 55,
        "velocity": 80,
        "subtype": "noteOn"
      },
      {
        "deltaTime": 113,
        "channel": 0,
        "type": "channel",
        "noteNumber": 55,
        "velocity": 0,
        "subtype": "noteOff"
      },
      {
        "deltaTime": 7,
        "channel": 0,
        "type": "channel",
        "noteNumber": 60,
        "velocity": 80,
        "subtype": "noteOn"
      },
      {
        "deltaTime": 113,
        "channel": 0,
        "type": "channel",
        "noteNumber": 60,
        "velocity": 0,
        "subtype": "noteOff"
      },
      {
        "deltaTime": 7,
        "channel": 0,
        "type": "channel",
        "noteNumber": 55,
        "velocity": 80,
        "subtype": "noteOn"
      },
      {
        "deltaTime": 113,
        "channel": 0,
        "type": "channel",
        "noteNumber": 55,
        "velocity": 0,
        "subtype": "noteOff"
      },
      {
        "deltaTime": 7,
        "channel": 0,
        "type": "channel",
        "noteNumber": 52,
        "velocity": 80,
        "subtype": "noteOn"
      },
      {
        "deltaTime": 113,
        "channel": 0,
        "type": "channel",
        "noteNumber": 52,
        "velocity": 0,
        "subtype": "noteOff"
      },
      {
        "deltaTime": 7,
        "channel": 0,
        "type": "channel",
        "noteNumber": 53,
        "velocity": 80,
        "subtype": "noteOn"
      },
      {
        "deltaTime": 113,
        "channel": 0,
        "type": "channel",
        "noteNumber": 53,
        "velocity": 0,
        "subtype": "noteOff"
      },
      {
        "deltaTime": 7,
        "channel": 0,
        "type": "channel",
        "noteNumber": 55,
        "velocity": 80,
        "subtype": "noteOn"
      },
      {
        "deltaTime": 113,
        "channel": 0,
        "type": "channel",
        "noteNumber": 55,
        "velocity": 0,
        "subtype": "noteOff"
      },
      {
        "deltaTime": 7,
        "channel": 0,
        "type": "channel",
        "noteNumber": 57,
        "velocity": 80,
        "subtype": "noteOn"
      },
      {
        "deltaTime": 113,
        "channel": 0,
        "type": "channel",
        "noteNumber": 57,
        "velocity": 0,
        "subtype": "noteOff"
      },
      {
        "deltaTime": 7,
        "channel": 0,
        "type": "channel",
        "noteNumber": 55,
        "velocity": 80,
        "subtype": "noteOn"
      },
      {
        "deltaTime": 113,
        "channel": 0,
        "type": "channel",
        "noteNumber": 55,
        "velocity": 0,
        "subtype": "noteOff"
      },
      {
        "deltaTime": 7,
        "channel": 0,
        "type": "channel",
        "noteNumber": 53,
        "velocity": 80,
        "subtype": "noteOn"
      },
      {
        "deltaTime": 113,
        "channel": 0,
        "type": "channel",
        "noteNumber": 53,
        "velocity": 0,
        "subtype": "noteOff"
      },
      {
        "deltaTime": 7,
        "channel": 0,
        "type": "channel",
        "noteNumber": 59,
        "velocity": 80,
        "subtype": "noteOn"
      },
      {
        "deltaTime": 113,
        "channel": 0,
        "type": "channel",
        "noteNumber": 59,
        "velocity": 0,
        "subtype": "noteOff"
      },
      {
        "deltaTime": 7,
        "channel": 0,
        "type": "channel",
        "noteNumber": 53,
        "velocity": 80,
        "subtype": "noteOn"
      },
      {
        "deltaTime": 113,
        "channel": 0,
        "type": "channel",
        "noteNumber": 53,
        "velocity": 0,
        "subtype": "noteOff"
      },
      {
        "deltaTime": 7,
        "channel": 0,
        "type": "channel",
        "noteNumber": 50,
        "velocity": 80,
        "subtype": "noteOn"
      },
      {
        "deltaTime": 113,
        "channel": 0,
        "type": "channel",
        "noteNumber": 50,
        "velocity": 0,
        "subtype": "noteOff"
      },
      {
        "deltaTime": 7,
        "channel": 0,
        "type": "channel",
        "noteNumber": 52,
        "velocity": 80,
        "subtype": "noteOn"
      },
      {
        "deltaTime": 113,
        "channel": 0,
        "type": "channel",
        "noteNumber": 52,
        "velocity": 0,
        "subtype": "noteOff"
      },
      {
        "deltaTime": 7,
        "channel": 0,
        "type": "channel",
        "noteNumber": 53,
        "velocity": 80,
        "subtype": "noteOn"
      },
      {
        "deltaTime": 113,
        "channel": 0,
        "type": "channel",
        "noteNumber": 53,
        "velocity": 0,
        "subtype": "noteOff"
      },
      {
        "deltaTime": 7,
        "channel": 0,
        "type": "channel",
        "noteNumber": 55,
        "velocity": 80,
        "subtype": "noteOn"
      },
      {
        "deltaTime": 113,
        "channel": 0,
        "type": "channel",
        "noteNumber": 55,
        "velocity": 0,
        "subtype": "noteOff"
      },
      {
        "deltaTime": 7,
        "channel": 0,
        "type": "channel",
        "noteNumber": 53,
        "velocity": 80,
        "subtype": "noteOn"
      },
      {
        "deltaTime": 113,
        "channel": 0,
        "type": "channel",
        "noteNumber": 53,
        "velocity": 0,
        "subtype": "noteOff"
      },
      {
        "deltaTime": 7,
        "channel": 0,
        "type": "channel",
        "noteNumber": 52,
        "velocity": 80,
        "subtype": "noteOn"
      },
      {
        "deltaTime": 113,
        "channel": 0,
        "type": "channel",
        "noteNumber": 52,
        "velocity": 0,
        "subtype": "noteOff"
      },
      {
        "deltaTime": 7,
        "channel": 0,
        "type": "channel",
        "noteNumber": 57,
        "velocity": 80,
        "subtype": "noteOn"
      },
      {
        "deltaTime": 113,
        "channel": 0,
        "type": "channel",
        "noteNumber": 57,
        "velocity": 0,
        "subtype": "noteOff"
      },
      {
        "deltaTime": 7,
        "channel": 0,
        "type": "channel",
        "noteNumber": 52,
        "velocity": 80,
        "subtype": "noteOn"
      },
      {
        "deltaTime": 113,
        "channel": 0,
        "type": "channel",
        "noteNumber": 52,
        "velocity": 0,
        "subtype": "noteOff"
      },
      {
        "deltaTime": 7,
        "channel": 0,
        "type": "channel",
        "noteNumber": 48,
        "velocity": 80,
        "subtype": "noteOn"
      },
      {
        "deltaTime": 113,
        "channel": 0,
        "type": "channel",
        "noteNumber": 48,
        "velocity": 0,
        "subtype": "noteOff"
      },
      {
        "deltaTime": 7,
        "channel": 0,
        "type": "channel",
        "noteNumber": 50,
        "velocity": 80,
        "subtype": "noteOn"
      },
      {
        "deltaTime": 113,
        "channel": 0,
        "type": "channel",
        "noteNumber": 50,
        "velocity": 0,
        "subtype": "noteOff"
      },
      {
        "deltaTime": 7,
        "channel": 0,
        "type": "channel",
        "noteNumber": 52,
        "velocity": 80,
        "subtype": "noteOn"
      },
      {
        "deltaTime": 113,
        "channel": 0,
        "type": "channel",
        "noteNumber": 52,
        "velocity": 0,
        "subtype": "noteOff"
      },
      {
        "deltaTime": 7,
        "channel": 0,
        "type": "channel",
        "noteNumber": 53,
        "velocity": 80,
        "subtype": "noteOn"
      },
      {
        "deltaTime": 113,
        "channel": 0,
        "type": "channel",
        "noteNumber": 53,
        "velocity": 0,
        "subtype": "noteOff"
      },
      {
        "deltaTime": 7,
        "channel": 0,
        "type": "channel",
        "noteNumber": 52,
        "velocity": 80,
        "subtype": "noteOn"
      },
      {
        "deltaTime": 113,
        "channel": 0,
        "type": "channel",
        "noteNumber": 52,
        "velocity": 0,
        "subtype": "noteOff"
      },
      {
        "deltaTime": 7,
        "channel": 0,
        "type": "channel",
        "noteNumber": 50,
        "velocity": 80,
        "subtype": "noteOn"
      },
      {
        "deltaTime": 113,
        "channel": 0,
        "type": "channel",
        "noteNumber": 50,
        "velocity": 0,
        "subtype": "noteOff"
      },
      {
        "deltaTime": 1,
        "type": "meta",
        "subtype": "endOfTrack"
      }
    ],
    [
      {
        "deltaTime": 0,
        "type": "meta",
        "subtype": "trackName",
        "text": "Piano\u0000"
      },
      {
        "deltaTime": 0,
        "type": "meta",
        "subtype": "keySignature",
        "key": 0,
        "scale": 0
      },
      {
        "deltaTime": 0,
        "type": "meta",
        "subtype": "unknown",
        "data": "\u0000"
      },
      {
        "deltaTime": 0,
        "channel": 0,
        "type": "channel",
        "noteNumber": 36,
        "velocity": 80,
        "subtype": "noteOn"
      },
      {
        "deltaTime": 113,
        "channel": 0,
        "type": "channel",
        "noteNumber": 36,
        "velocity": 0,
        "subtype": "noteOff"
      },
      {
        "deltaTime": 7,
        "channel": 0,
        "type": "channel",
        "noteNumber": 40,
        "velocity": 80,
        "subtype": "noteOn"
      },
      {
        "deltaTime": 113,
        "channel": 0,
        "type": "channel",
        "noteNumber": 40,
        "velocity": 0,
        "subtype": "noteOff"
      },
      {
        "deltaTime": 7,
        "channel": 0,
        "type": "channel",
        "noteNumber": 45,
        "velocity": 80,
        "subtype": "noteOn"
      },
      {
        "deltaTime": 113,
        "channel": 0,
        "type": "channel",
        "noteNumber": 45,
        "velocity": 0,
        "subtype": "noteOff"
      },
      {
        "deltaTime": 7,
        "channel": 0,
        "type": "channel",
        "noteNumber": 43,
        "velocity": 80,
        "subtype": "noteOn"
      },
      {
        "deltaTime": 113,
        "channel": 0,
        "type": "channel",
        "noteNumber": 43,
        "velocity": 0,
        "subtype": "noteOff"
      },
      {
        "deltaTime": 7,
        "channel": 0,
        "type": "channel",
        "noteNumber": 41,
        "velocity": 80,
        "subtype": "noteOn"
      },
      {
        "deltaTime": 113,
        "channel": 0,
        "type": "channel",
        "noteNumber": 41,
        "velocity": 0,
        "subtype": "noteOff"
      },
      {
        "deltaTime": 7,
        "channel": 0,
        "type": "channel",
        "noteNumber": 40,
        "velocity": 80,
        "subtype": "noteOn"
      },
      {
        "deltaTime": 113,
        "channel": 0,
        "type": "channel",
        "noteNumber": 40,
        "velocity": 0,
        "subtype": "noteOff"
      },
      {
        "deltaTime": 7,
        "channel": 0,
        "type": "channel",
        "noteNumber": 41,
        "velocity": 80,
        "subtype": "noteOn"
      },
      {
        "deltaTime": 113,
        "channel": 0,
        "type": "channel",
        "noteNumber": 41,
        "velocity": 0,
        "subtype": "noteOff"
      },
      {
        "deltaTime": 7,
        "channel": 0,
        "type": "channel",
        "noteNumber": 43,
        "velocity": 80,
        "subtype": "noteOn"
      },
      {
        "deltaTime": 113,
        "channel": 0,
        "type": "channel",
        "noteNumber": 43,
        "velocity": 0,
        "subtype": "noteOff"
      },
      {
        "deltaTime": 7,
        "channel": 0,
        "type": "channel",
        "noteNumber": 38,
        "velocity": 80,
        "subtype": "noteOn"
      },
      {
        "deltaTime": 113,
        "channel": 0,
        "type": "channel",
        "noteNumber": 38,
        "velocity": 0,
        "subtype": "noteOff"
      },
      {
        "deltaTime": 7,
        "channel": 0,
        "type": "channel",
        "noteNumber": 41,
        "velocity": 80,
        "subtype": "noteOn"
      },
      {
        "deltaTime": 113,
        "channel": 0,
        "type": "channel",
        "noteNumber": 41,
        "velocity": 0,
        "subtype": "noteOff"
      },
      {
        "deltaTime": 7,
        "channel": 0,
        "type": "channel",
        "noteNumber": 47,
        "velocity": 80,
        "subtype": "noteOn"
      },
      {
        "deltaTime": 113,
        "channel": 0,
        "type": "channel",
        "noteNumber": 47,
        "velocity": 0,
        "subtype": "noteOff"
      },
      {
        "deltaTime": 7,
        "channel": 0,
        "type": "channel",
        "noteNumber": 45,
        "velocity": 80,
        "subtype": "noteOn"
      },
      {
        "deltaTime": 113,
        "channel": 0,
        "type": "channel",
        "noteNumber": 45,
        "velocity": 0,
        "subtype": "noteOff"
      },
      {
        "deltaTime": 7,
        "channel": 0,
        "type": "channel",
        "noteNumber": 43,
        "velocity": 80,
        "subtype": "noteOn"
      },
      {
        "deltaTime": 113,
        "channel": 0,
        "type": "channel",
        "noteNumber": 43,
        "velocity": 0,
        "subtype": "noteOff"
      },
      {
        "deltaTime": 7,
        "channel": 0,
        "type": "channel",
        "noteNumber": 41,
        "velocity": 80,
        "subtype": "noteOn"
      },
      {
        "deltaTime": 113,
        "channel": 0,
        "type": "channel",
        "noteNumber": 41,
        "velocity": 0,
        "subtype": "noteOff"
      },
      {
        "deltaTime": 7,
        "channel": 0,
        "type": "channel",
        "noteNumber": 43,
        "velocity": 80,
        "subtype": "noteOn"
      },
      {
        "deltaTime": 113,
        "channel": 0,
        "type": "channel",
        "noteNumber": 43,
        "velocity": 0,
        "subtype": "noteOff"
      },
      {
        "deltaTime": 7,
        "channel": 0,
        "type": "channel",
        "noteNumber": 45,
        "velocity": 80,
        "subtype": "noteOn"
      },
      {
        "deltaTime": 113,
        "channel": 0,
        "type": "channel",
        "noteNumber": 45,
        "velocity": 0,
        "subtype": "noteOff"
      },
      {
        "deltaTime": 7,
        "channel": 0,
        "type": "channel",
        "noteNumber": 40,
        "velocity": 80,
        "subtype": "noteOn"
      },
      {
        "deltaTime": 113,
        "channel": 0,
        "type": "channel",
        "noteNumber": 40,
        "velocity": 0,
        "subtype": "noteOff"
      },
      {
        "deltaTime": 7,
        "channel": 0,
        "type": "channel",
        "noteNumber": 43,
        "velocity": 80,
        "subtype": "noteOn"
      },
      {
        "deltaTime": 113,
        "channel": 0,
        "type": "channel",
        "noteNumber": 43,
        "velocity": 0,
        "subtype": "noteOff"
      },
      {
        "deltaTime": 7,
        "channel": 0,
        "type": "channel",
        "noteNumber": 48,
        "velocity": 80,
        "subtype": "noteOn"
      },
      {
        "deltaTime": 113,
        "channel": 0,
        "type": "channel",
        "noteNumber": 48,
        "velocity": 0,
        "subtype": "noteOff"
      },
      {
        "deltaTime": 7,
        "channel": 0,
        "type": "channel",
        "noteNumber": 47,
        "velocity": 80,
        "subtype": "noteOn"
      },
      {
        "deltaTime": 113,
        "channel": 0,
        "type": "channel",
        "noteNumber": 47,
        "velocity": 0,
        "subtype": "noteOff"
      },
      {
        "deltaTime": 7,
        "channel": 0,
        "type": "channel",
        "noteNumber": 45,
        "velocity": 80,
        "subtype": "noteOn"
      },
      {
        "deltaTime": 113,
        "channel": 0,
        "type": "channel",
        "noteNumber": 45,
        "velocity": 0,
        "subtype": "noteOff"
      },
      {
        "deltaTime": 7,
        "channel": 0,
        "type": "channel",
        "noteNumber": 43,
        "velocity": 80,
        "subtype": "noteOn"
      },
      {
        "deltaTime": 113,
        "channel": 0,
        "type": "channel",
        "noteNumber": 43,
        "velocity": 0,
        "subtype": "noteOff"
      },
      {
        "deltaTime": 7,
        "channel": 0,
        "type": "channel",
        "noteNumber": 45,
        "velocity": 80,
        "subtype": "noteOn"
      },
      {
        "deltaTime": 113,
        "channel": 0,
        "type": "channel",
        "noteNumber": 45,
        "velocity": 0,
        "subtype": "noteOff"
      },
      {
        "deltaTime": 7,
        "channel": 0,
        "type": "channel",
        "noteNumber": 47,
        "velocity": 80,
        "subtype": "noteOn"
      },
      {
        "deltaTime": 113,
        "channel": 0,
        "type": "channel",
        "noteNumber": 47,
        "velocity": 0,
        "subtype": "noteOff"
      },
      {
        "deltaTime": 7,
        "channel": 0,
        "type": "channel",
        "noteNumber": 41,
        "velocity": 80,
        "subtype": "noteOn"
      },
      {
        "deltaTime": 113,
        "channel": 0,
        "type": "channel",
        "noteNumber": 41,
        "velocity": 0,
        "subtype": "noteOff"
      },
      {
        "deltaTime": 7,
        "channel": 0,
        "type": "channel",
        "noteNumber": 45,
        "velocity": 80,
        "subtype": "noteOn"
      },
      {
        "deltaTime": 113,
        "channel": 0,
        "type": "channel",
        "noteNumber": 45,
        "velocity": 0,
        "subtype": "noteOff"
      },
      {
        "deltaTime": 7,
        "channel": 0,
        "type": "channel",
        "noteNumber": 50,
        "velocity": 80,
        "subtype": "noteOn"
      },
      {
        "deltaTime": 113,
        "channel": 0,
        "type": "channel",
        "noteNumber": 50,
        "velocity": 0,
        "subtype": "noteOff"
      },
      {
        "deltaTime": 7,
        "channel": 0,
        "type": "channel",
        "noteNumber": 48,
        "velocity": 80,
        "subtype": "noteOn"
      },
      {
        "deltaTime": 113,
        "channel": 0,
        "type": "channel",
        "noteNumber": 48,
        "velocity": 0,
        "subtype": "noteOff"
      },
      {
        "deltaTime": 7,
        "channel": 0,
        "type": "channel",
        "noteNumber": 47,
        "velocity": 80,
        "subtype": "noteOn"
      },
      {
        "deltaTime": 113,
        "channel": 0,
        "type": "channel",
        "noteNumber": 47,
        "velocity": 0,
        "subtype": "noteOff"
      },
      {
        "deltaTime": 7,
        "channel": 0,
        "type": "channel",
        "noteNumber": 45,
        "velocity": 80,
        "subtype": "noteOn"
      },
      {
        "deltaTime": 113,
        "channel": 0,
        "type": "channel",
        "noteNumber": 45,
        "velocity": 0,
        "subtype": "noteOff"
      },
      {
        "deltaTime": 7,
        "channel": 0,
        "type": "channel",
        "noteNumber": 47,
        "velocity": 80,
        "subtype": "noteOn"
      },
      {
        "deltaTime": 113,
        "channel": 0,
        "type": "channel",
        "noteNumber": 47,
        "velocity": 0,
        "subtype": "noteOff"
      },
      {
        "deltaTime": 7,
        "channel": 0,
        "type": "channel",
        "noteNumber": 48,
        "velocity": 80,
        "subtype": "noteOn"
      },
      {
        "deltaTime": 113,
        "channel": 0,
        "type": "channel",
        "noteNumber": 48,
        "velocity": 0,
        "subtype": "noteOff"
      },
      {
        "deltaTime": 7,
        "channel": 0,
        "type": "channel",
        "noteNumber": 43,
        "velocity": 80,
        "subtype": "noteOn"
      },
      {
        "deltaTime": 113,
        "channel": 0,
        "type": "channel",
        "noteNumber": 43,
        "velocity": 0,
        "subtype": "noteOff"
      },
      {
        "deltaTime": 7,
        "channel": 0,
        "type": "channel",
        "noteNumber": 47,
        "velocity": 80,
        "subtype": "noteOn"
      },
      {
        "deltaTime": 113,
        "channel": 0,
        "type": "channel",
        "noteNumber": 47,
        "velocity": 0,
        "subtype": "noteOff"
      },
      {
        "deltaTime": 7,
        "channel": 0,
        "type": "channel",
        "noteNumber": 52,
        "velocity": 80,
        "subtype": "noteOn"
      },
      {
        "deltaTime": 113,
        "channel": 0,
        "type": "channel",
        "noteNumber": 52,
        "velocity": 0,
        "subtype": "noteOff"
      },
      {
        "deltaTime": 7,
        "channel": 0,
        "type": "channel",
        "noteNumber": 50,
        "velocity": 80,
        "subtype": "noteOn"
      },
      {
        "deltaTime": 113,
        "channel": 0,
        "type": "channel",
        "noteNumber": 50,
        "velocity": 0,
        "subtype": "noteOff"
      },
      {
        "deltaTime": 7,
        "channel": 0,
        "type": "channel",
        "noteNumber": 48,
        "velocity": 80,
        "subtype": "noteOn"
      },
      {
        "deltaTime": 113,
        "channel": 0,
        "type": "channel",
        "noteNumber": 48,
        "velocity": 0,
        "subtype": "noteOff"
      },
      {
        "deltaTime": 7,
        "channel": 0,
        "type": "channel",
        "noteNumber": 47,
        "velocity": 80,
        "subtype": "noteOn"
      },
      {
        "deltaTime": 113,
        "channel": 0,
        "type": "channel",
        "noteNumber": 47,
        "velocity": 0,
        "subtype": "noteOff"
      },
      {
        "deltaTime": 7,
        "channel": 0,
        "type": "channel",
        "noteNumber": 48,
        "velocity": 80,
        "subtype": "noteOn"
      },
      {
        "deltaTime": 113,
        "channel": 0,
        "type": "channel",
        "noteNumber": 48,
        "velocity": 0,
        "subtype": "noteOff"
      },
      {
        "deltaTime": 7,
        "channel": 0,
        "type": "channel",
        "noteNumber": 50,
        "velocity": 80,
        "subtype": "noteOn"
      },
      {
        "deltaTime": 113,
        "channel": 0,
        "type": "channel",
        "noteNumber": 50,
        "velocity": 0,
        "subtype": "noteOff"
      },
      {
        "deltaTime": 7,
        "channel": 0,
        "type": "channel",
        "noteNumber": 45,
        "velocity": 80,
        "subtype": "noteOn"
      },
      {
        "deltaTime": 113,
        "channel": 0,
        "type": "channel",
        "noteNumber": 45,
        "velocity": 0,
        "subtype": "noteOff"
      },
      {
        "deltaTime": 7,
        "channel": 0,
        "type": "channel",
        "noteNumber": 48,
        "velocity": 80,
        "subtype": "noteOn"
      },
      {
        "deltaTime": 113,
        "channel": 0,
        "type": "channel",
        "noteNumber": 48,
        "velocity": 0,
        "subtype": "noteOff"
      },
      {
        "deltaTime": 7,
        "channel": 0,
        "type": "channel",
        "noteNumber": 53,
        "velocity": 80,
        "subtype": "noteOn"
      },
      {
        "deltaTime": 113,
        "channel": 0,
        "type": "channel",
        "noteNumber": 53,
        "velocity": 0,
        "subtype": "noteOff"
      },
      {
        "deltaTime": 7,
        "channel": 0,
        "type": "channel",
        "noteNumber": 52,
        "velocity": 80,
        "subtype": "noteOn"
      },
      {
        "deltaTime": 113,
        "channel": 0,
        "type": "channel",
        "noteNumber": 52,
        "velocity": 0,
        "subtype": "noteOff"
      },
      {
        "deltaTime": 7,
        "channel": 0,
        "type": "channel",
        "noteNumber": 50,
        "velocity": 80,
        "subtype": "noteOn"
      },
      {
        "deltaTime": 113,
        "channel": 0,
        "type": "channel",
        "noteNumber": 50,
        "velocity": 0,
        "subtype": "noteOff"
      },
      {
        "deltaTime": 7,
        "channel": 0,
        "type": "channel",
        "noteNumber": 48,
        "velocity": 80,
        "subtype": "noteOn"
      },
      {
        "deltaTime": 113,
        "channel": 0,
        "type": "channel",
        "noteNumber": 48,
        "velocity": 0,
        "subtype": "noteOff"
      },
      {
        "deltaTime": 7,
        "channel": 0,
        "type": "channel",
        "noteNumber": 50,
        "velocity": 80,
        "subtype": "noteOn"
      },
      {
        "deltaTime": 113,
        "channel": 0,
        "type": "channel",
        "noteNumber": 50,
        "velocity": 0,
        "subtype": "noteOff"
      },
      {
        "deltaTime": 7,
        "channel": 0,
        "type": "channel",
        "noteNumber": 52,
        "velocity": 80,
        "subtype": "noteOn"
      },
      {
        "deltaTime": 113,
        "channel": 0,
        "type": "channel",
        "noteNumber": 52,
        "velocity": 0,
        "subtype": "noteOff"
      },
      {
        "deltaTime": 7,
        "channel": 0,
        "type": "channel",
        "noteNumber": 47,
        "velocity": 80,
        "subtype": "noteOn"
      },
      {
        "deltaTime": 113,
        "channel": 0,
        "type": "channel",
        "noteNumber": 47,
        "velocity": 0,
        "subtype": "noteOff"
      },
      {
        "deltaTime": 7,
        "channel": 0,
        "type": "channel",
        "noteNumber": 50,
        "velocity": 80,
        "subtype": "noteOn"
      },
      {
        "deltaTime": 113,
        "channel": 0,
        "type": "channel",
        "noteNumber": 50,
        "velocity": 0,
        "subtype": "noteOff"
      },
      {
        "deltaTime": 7,
        "channel": 0,
        "type": "channel",
        "noteNumber": 55,
        "velocity": 80,
        "subtype": "noteOn"
      },
      {
        "deltaTime": 113,
        "channel": 0,
        "type": "channel",
        "noteNumber": 55,
        "velocity": 0,
        "subtype": "noteOff"
      },
      {
        "deltaTime": 7,
        "channel": 0,
        "type": "channel",
        "noteNumber": 53,
        "velocity": 80,
        "subtype": "noteOn"
      },
      {
        "deltaTime": 113,
        "channel": 0,
        "type": "channel",
        "noteNumber": 53,
        "velocity": 0,
        "subtype": "noteOff"
      },
      {
        "deltaTime": 7,
        "channel": 0,
        "type": "channel",
        "noteNumber": 52,
        "velocity": 80,
        "subtype": "noteOn"
      },
      {
        "deltaTime": 113,
        "channel": 0,
        "type": "channel",
        "noteNumber": 52,
        "velocity": 0,
        "subtype": "noteOff"
      },
      {
        "deltaTime": 7,
        "channel": 0,
        "type": "channel",
        "noteNumber": 50,
        "velocity": 80,
        "subtype": "noteOn"
      },
      {
        "deltaTime": 113,
        "channel": 0,
        "type": "channel",
        "noteNumber": 50,
        "velocity": 0,
        "subtype": "noteOff"
      },
      {
        "deltaTime": 7,
        "channel": 0,
        "type": "channel",
        "noteNumber": 52,
        "velocity": 80,
        "subtype": "noteOn"
      },
      {
        "deltaTime": 113,
        "channel": 0,
        "type": "channel",
        "noteNumber": 52,
        "velocity": 0,
        "subtype": "noteOff"
      },
      {
        "deltaTime": 7,
        "channel": 0,
        "type": "channel",
        "noteNumber": 53,
        "velocity": 80,
        "subtype": "noteOn"
      },
      {
        "deltaTime": 113,
        "channel": 0,
        "type": "channel",
        "noteNumber": 53,
        "velocity": 0,
        "subtype": "noteOff"
      },
      {
        "deltaTime": 7,
        "channel": 0,
        "type": "channel",
        "noteNumber": 48,
        "velocity": 80,
        "subtype": "noteOn"
      },
      {
        "deltaTime": 113,
        "channel": 0,
        "type": "channel",
        "noteNumber": 48,
        "velocity": 0,
        "subtype": "noteOff"
      },
      {
        "deltaTime": 7,
        "channel": 0,
        "type": "channel",
        "noteNumber": 52,
        "velocity": 80,
        "subtype": "noteOn"
      },
      {
        "deltaTime": 113,
        "channel": 0,
        "type": "channel",
        "noteNumber": 52,
        "velocity": 0,
        "subtype": "noteOff"
      },
      {
        "deltaTime": 7,
        "channel": 0,
        "type": "channel",
        "noteNumber": 57,
        "velocity": 80,
        "subtype": "noteOn"
      },
      {
        "deltaTime": 113,
        "channel": 0,
        "type": "channel",
        "noteNumber": 57,
        "velocity": 0,
        "subtype": "noteOff"
      },
      {
        "deltaTime": 7,
        "channel": 0,
        "type": "channel",
        "noteNumber": 55,
        "velocity": 80,
        "subtype": "noteOn"
      },
      {
        "deltaTime": 113,
        "channel": 0,
        "type": "channel",
        "noteNumber": 55,
        "velocity": 0,
        "subtype": "noteOff"
      },
      {
        "deltaTime": 7,
        "channel": 0,
        "type": "channel",
        "noteNumber": 53,
        "velocity": 80,
        "subtype": "noteOn"
      },
      {
        "deltaTime": 113,
        "channel": 0,
        "type": "channel",
        "noteNumber": 53,
        "velocity": 0,
        "subtype": "noteOff"
      },
      {
        "deltaTime": 7,
        "channel": 0,
        "type": "channel",
        "noteNumber": 52,
        "velocity": 80,
        "subtype": "noteOn"
      },
      {
        "deltaTime": 113,
        "channel": 0,
        "type": "channel",
        "noteNumber": 52,
        "velocity": 0,
        "subtype": "noteOff"
      },
      {
        "deltaTime": 7,
        "channel": 0,
        "type": "channel",
        "noteNumber": 53,
        "velocity": 80,
        "subtype": "noteOn"
      },
      {
        "deltaTime": 113,
        "channel": 0,
        "type": "channel",
        "noteNumber": 53,
        "velocity": 0,
        "subtype": "noteOff"
      },
      {
        "deltaTime": 7,
        "channel": 0,
        "type": "channel",
        "noteNumber": 55,
        "velocity": 80,
        "subtype": "noteOn"
      },
      {
        "deltaTime": 113,
        "channel": 0,
        "type": "channel",
        "noteNumber": 55,
        "velocity": 0,
        "subtype": "noteOff"
      },
      {
        "deltaTime": 7,
        "channel": 0,
        "type": "channel",
        "noteNumber": 50,
        "velocity": 80,
        "subtype": "noteOn"
      },
      {
        "deltaTime": 113,
        "channel": 0,
        "type": "channel",
        "noteNumber": 50,
        "velocity": 0,
        "subtype": "noteOff"
      },
      {
        "deltaTime": 7,
        "channel": 0,
        "type": "channel",
        "noteNumber": 53,
        "velocity": 80,
        "subtype": "noteOn"
      },
      {
        "deltaTime": 113,
        "channel": 0,
        "type": "channel",
        "noteNumber": 53,
        "velocity": 0,
        "subtype": "noteOff"
      },
      {
        "deltaTime": 7,
        "channel": 0,
        "type": "channel",
        "noteNumber": 59,
        "velocity": 80,
        "subtype": "noteOn"
      },
      {
        "deltaTime": 113,
        "channel": 0,
        "type": "channel",
        "noteNumber": 59,
        "velocity": 0,
        "subtype": "noteOff"
      },
      {
        "deltaTime": 7,
        "channel": 0,
        "type": "channel",
        "noteNumber": 57,
        "velocity": 80,
        "subtype": "noteOn"
      },
      {
        "deltaTime": 113,
        "channel": 0,
        "type": "channel",
        "noteNumber": 57,
        "velocity": 0,
        "subtype": "noteOff"
      },
      {
        "deltaTime": 7,
        "channel": 0,
        "type": "channel",
        "noteNumber": 55,
        "velocity": 80,
        "subtype": "noteOn"
      },
      {
        "deltaTime": 113,
        "channel": 0,
        "type": "channel",
        "noteNumber": 55,
        "velocity": 0,
        "subtype": "noteOff"
      },
      {
        "deltaTime": 7,
        "channel": 0,
        "type": "channel",
        "noteNumber": 53,
        "velocity": 80,
        "subtype": "noteOn"
      },
      {
        "deltaTime": 113,
        "channel": 0,
        "type": "channel",
        "noteNumber": 53,
        "velocity": 0,
        "subtype": "noteOff"
      },
      {
        "deltaTime": 7,
        "channel": 0,
        "type": "channel",
        "noteNumber": 55,
        "velocity": 80,
        "subtype": "noteOn"
      },
      {
        "deltaTime": 113,
        "channel": 0,
        "type": "channel",
        "noteNumber": 55,
        "velocity": 0,
        "subtype": "noteOff"
      },
      {
        "deltaTime": 7,
        "channel": 0,
        "type": "channel",
        "noteNumber": 57,
        "velocity": 80,
        "subtype": "noteOn"
      },
      {
        "deltaTime": 113,
        "channel": 0,
        "type": "channel",
        "noteNumber": 57,
        "velocity": 0,
        "subtype": "noteOff"
      },
      {
        "deltaTime": 7,
        "channel": 0,
        "type": "channel",
        "noteNumber": 52,
        "velocity": 80,
        "subtype": "noteOn"
      },
      {
        "deltaTime": 113,
        "channel": 0,
        "type": "channel",
        "noteNumber": 52,
        "velocity": 0,
        "subtype": "noteOff"
      },
      {
        "deltaTime": 7,
        "channel": 0,
        "type": "channel",
        "noteNumber": 55,
        "velocity": 80,
        "subtype": "noteOn"
      },
      {
        "deltaTime": 113,
        "channel": 0,
        "type": "channel",
        "noteNumber": 55,
        "velocity": 0,
        "subtype": "noteOff"
      },
      {
        "deltaTime": 7,
        "channel": 0,
        "type": "channel",
        "noteNumber": 60,
        "velocity": 80,
        "subtype": "noteOn"
      },
      {
        "deltaTime": 113,
        "channel": 0,
        "type": "channel",
        "noteNumber": 60,
        "velocity": 0,
        "subtype": "noteOff"
      },
      {
        "deltaTime": 7,
        "channel": 0,
        "type": "channel",
        "noteNumber": 59,
        "velocity": 80,
        "subtype": "noteOn"
      },
      {
        "deltaTime": 113,
        "channel": 0,
        "type": "channel",
        "noteNumber": 59,
        "velocity": 0,
        "subtype": "noteOff"
      },
      {
        "deltaTime": 7,
        "channel": 0,
        "type": "channel",
        "noteNumber": 57,
        "velocity": 80,
        "subtype": "noteOn"
      },
      {
        "deltaTime": 113,
        "channel": 0,
        "type": "channel",
        "noteNumber": 57,
        "velocity": 0,
        "subtype": "noteOff"
      },
      {
        "deltaTime": 7,
        "channel": 0,
        "type": "channel",
        "noteNumber": 55,
        "velocity": 80,
        "subtype": "noteOn"
      },
      {
        "deltaTime": 113,
        "channel": 0,
        "type": "channel",
        "noteNumber": 55,
        "velocity": 0,
        "subtype": "noteOff"
      },
      {
        "deltaTime": 7,
        "channel": 0,
        "type": "channel",
        "noteNumber": 57,
        "velocity": 80,
        "subtype": "noteOn"
      },
      {
        "deltaTime": 113,
        "channel": 0,
        "type": "channel",
        "noteNumber": 57,
        "velocity": 0,
        "subtype": "noteOff"
      },
      {
        "deltaTime": 7,
        "channel": 0,
        "type": "channel",
        "noteNumber": 59,
        "velocity": 80,
        "subtype": "noteOn"
      },
      {
        "deltaTime": 113,
        "channel": 0,
        "type": "channel",
        "noteNumber": 59,
        "velocity": 0,
        "subtype": "noteOff"
      },
      {
        "deltaTime": 7,
        "channel": 0,
        "type": "channel",
        "noteNumber": 53,
        "velocity": 80,
        "subtype": "noteOn"
      },
      {
        "deltaTime": 113,
        "channel": 0,
        "type": "channel",
        "noteNumber": 53,
        "velocity": 0,
        "subtype": "noteOff"
      },
      {
        "deltaTime": 7,
        "channel": 0,
        "type": "channel",
        "noteNumber": 57,
        "velocity": 80,
        "subtype": "noteOn"
      },
      {
        "deltaTime": 113,
        "channel": 0,
        "type": "channel",
        "noteNumber": 57,
        "velocity": 0,
        "subtype": "noteOff"
      },
      {
        "deltaTime": 7,
        "channel": 0,
        "type": "channel",
        "noteNumber": 62,
        "velocity": 80,
        "subtype": "noteOn"
      },
      {
        "deltaTime": 113,
        "channel": 0,
        "type": "channel",
        "noteNumber": 62,
        "velocity": 0,
        "subtype": "noteOff"
      },
      {
        "deltaTime": 7,
        "channel": 0,
        "type": "channel",
        "noteNumber": 60,
        "velocity": 80,
        "subtype": "noteOn"
      },
      {
        "deltaTime": 113,
        "channel": 0,
        "type": "channel",
        "noteNumber": 60,
        "velocity": 0,
        "subtype": "noteOff"
      },
      {
        "deltaTime": 7,
        "channel": 0,
        "type": "channel",
        "noteNumber": 59,
        "velocity": 80,
        "subtype": "noteOn"
      },
      {
        "deltaTime": 113,
        "channel": 0,
        "type": "channel",
        "noteNumber": 59,
        "velocity": 0,
        "subtype": "noteOff"
      },
      {
        "deltaTime": 7,
        "channel": 0,
        "type": "channel",
        "noteNumber": 57,
        "velocity": 80,
        "subtype": "noteOn"
      },
      {
        "deltaTime": 113,
        "channel": 0,
        "type": "channel",
        "noteNumber": 57,
        "velocity": 0,
        "subtype": "noteOff"
      },
      {
        "deltaTime": 7,
        "channel": 0,
        "type": "channel",
        "noteNumber": 59,
        "velocity": 80,
        "subtype": "noteOn"
      },
      {
        "deltaTime": 113,
        "channel": 0,
        "type": "channel",
        "noteNumber": 59,
        "velocity": 0,
        "subtype": "noteOff"
      },
      {
        "deltaTime": 7,
        "channel": 0,
        "type": "channel",
        "noteNumber": 60,
        "velocity": 80,
        "subtype": "noteOn"
      },
      {
        "deltaTime": 113,
        "channel": 0,
        "type": "channel",
        "noteNumber": 60,
        "velocity": 0,
        "subtype": "noteOff"
      },
      {
        "deltaTime": 7,
        "channel": 0,
        "type": "channel",
        "noteNumber": 55,
        "velocity": 80,
        "subtype": "noteOn"
      },
      {
        "deltaTime": 113,
        "channel": 0,
        "type": "channel",
        "noteNumber": 55,
        "velocity": 0,
        "subtype": "noteOff"
      },
      {
        "deltaTime": 7,
        "channel": 0,
        "type": "channel",
        "noteNumber": 59,
        "velocity": 80,
        "subtype": "noteOn"
      },
      {
        "deltaTime": 113,
        "channel": 0,
        "type": "channel",
        "noteNumber": 59,
        "velocity": 0,
        "subtype": "noteOff"
      },
      {
        "deltaTime": 7,
        "channel": 0,
        "type": "channel",
        "noteNumber": 64,
        "velocity": 80,
        "subtype": "noteOn"
      },
      {
        "deltaTime": 113,
        "channel": 0,
        "type": "channel",
        "noteNumber": 64,
        "velocity": 0,
        "subtype": "noteOff"
      },
      {
        "deltaTime": 7,
        "channel": 0,
        "type": "channel",
        "noteNumber": 62,
        "velocity": 80,
        "subtype": "noteOn"
      },
      {
        "deltaTime": 113,
        "channel": 0,
        "type": "channel",
        "noteNumber": 62,
        "velocity": 0,
        "subtype": "noteOff"
      },
      {
        "deltaTime": 7,
        "channel": 0,
        "type": "channel",
        "noteNumber": 60,
        "velocity": 80,
        "subtype": "noteOn"
      },
      {
        "deltaTime": 113,
        "channel": 0,
        "type": "channel",
        "noteNumber": 60,
        "velocity": 0,
        "subtype": "noteOff"
      },
      {
        "deltaTime": 7,
        "channel": 0,
        "type": "channel",
        "noteNumber": 59,
        "velocity": 80,
        "subtype": "noteOn"
      },
      {
        "deltaTime": 113,
        "channel": 0,
        "type": "channel",
        "noteNumber": 59,
        "velocity": 0,
        "subtype": "noteOff"
      },
      {
        "deltaTime": 7,
        "channel": 0,
        "type": "channel",
        "noteNumber": 60,
        "velocity": 80,
        "subtype": "noteOn"
      },
      {
        "deltaTime": 113,
        "channel": 0,
        "type": "channel",
        "noteNumber": 60,
        "velocity": 0,
        "subtype": "noteOff"
      },
      {
        "deltaTime": 7,
        "channel": 0,
        "type": "channel",
        "noteNumber": 62,
        "velocity": 80,
        "subtype": "noteOn"
      },
      {
        "deltaTime": 113,
        "channel": 0,
        "type": "channel",
        "noteNumber": 62,
        "velocity": 0,
        "subtype": "noteOff"
      },
      {
        "deltaTime": 7,
        "channel": 0,
        "type": "channel",
        "noteNumber": 57,
        "velocity": 80,
        "subtype": "noteOn"
      },
      {
        "deltaTime": 113,
        "channel": 0,
        "type": "channel",
        "noteNumber": 57,
        "velocity": 0,
        "subtype": "noteOff"
      },
      {
        "deltaTime": 7,
        "channel": 0,
        "type": "channel",
        "noteNumber": 60,
        "velocity": 80,
        "subtype": "noteOn"
      },
      {
        "deltaTime": 113,
        "channel": 0,
        "type": "channel",
        "noteNumber": 60,
        "velocity": 0,
        "subtype": "noteOff"
      },
      {
        "deltaTime": 7,
        "channel": 0,
        "type": "channel",
        "noteNumber": 65,
        "velocity": 80,
        "subtype": "noteOn"
      },
      {
        "deltaTime": 113,
        "channel": 0,
        "type": "channel",
        "noteNumber": 65,
        "velocity": 0,
        "subtype": "noteOff"
      },
      {
        "deltaTime": 7,
        "channel": 0,
        "type": "channel",
        "noteNumber": 64,
        "velocity": 80,
        "subtype": "noteOn"
      },
      {
        "deltaTime": 113,
        "channel": 0,
        "type": "channel",
        "noteNumber": 64,
        "velocity": 0,
        "subtype": "noteOff"
      },
      {
        "deltaTime": 7,
        "channel": 0,
        "type": "channel",
        "noteNumber": 62,
        "velocity": 80,
        "subtype": "noteOn"
      },
      {
        "deltaTime": 113,
        "channel": 0,
        "type": "channel",
        "noteNumber": 62,
        "velocity": 0,
        "subtype": "noteOff"
      },
      {
        "deltaTime": 7,
        "channel": 0,
        "type": "channel",
        "noteNumber": 60,
        "velocity": 80,
        "subtype": "noteOn"
      },
      {
        "deltaTime": 113,
        "channel": 0,
        "type": "channel",
        "noteNumber": 60,
        "velocity": 0,
        "subtype": "noteOff"
      },
      {
        "deltaTime": 7,
        "channel": 0,
        "type": "channel",
        "noteNumber": 62,
        "velocity": 80,
        "subtype": "noteOn"
      },
      {
        "deltaTime": 113,
        "channel": 0,
        "type": "channel",
        "noteNumber": 62,
        "velocity": 0,
        "subtype": "noteOff"
      },
      {
        "deltaTime": 7,
        "channel": 0,
        "type": "channel",
        "noteNumber": 64,
        "velocity": 80,
        "subtype": "noteOn"
      },
      {
        "deltaTime": 113,
        "channel": 0,
        "type": "channel",
        "noteNumber": 64,
        "velocity": 0,
        "subtype": "noteOff"
      },
      {
        "deltaTime": 7,
        "channel": 0,
        "type": "channel",
        "noteNumber": 59,
        "velocity": 80,
        "subtype": "noteOn"
      },
      {
        "deltaTime": 113,
        "channel": 0,
        "type": "channel",
        "noteNumber": 59,
        "velocity": 0,
        "subtype": "noteOff"
      },
      {
        "deltaTime": 7,
        "channel": 0,
        "type": "channel",
        "noteNumber": 62,
        "velocity": 80,
        "subtype": "noteOn"
      },
      {
        "deltaTime": 113,
        "channel": 0,
        "type": "channel",
        "noteNumber": 62,
        "velocity": 0,
        "subtype": "noteOff"
      },
      {
        "deltaTime": 7,
        "channel": 0,
        "type": "channel",
        "noteNumber": 67,
        "velocity": 80,
        "subtype": "noteOn"
      },
      {
        "deltaTime": 113,
        "channel": 0,
        "type": "channel",
        "noteNumber": 67,
        "velocity": 0,
        "subtype": "noteOff"
      },
      {
        "deltaTime": 7,
        "channel": 0,
        "type": "channel",
        "noteNumber": 65,
        "velocity": 80,
        "subtype": "noteOn"
      },
      {
        "deltaTime": 113,
        "channel": 0,
        "type": "channel",
        "noteNumber": 65,
        "velocity": 0,
        "subtype": "noteOff"
      },
      {
        "deltaTime": 7,
        "channel": 0,
        "type": "channel",
        "noteNumber": 64,
        "velocity": 80,
        "subtype": "noteOn"
      },
      {
        "deltaTime": 113,
        "channel": 0,
        "type": "channel",
        "noteNumber": 64,
        "velocity": 0,
        "subtype": "noteOff"
      },
      {
        "deltaTime": 7,
        "channel": 0,
        "type": "channel",
        "noteNumber": 62,
        "velocity": 80,
        "subtype": "noteOn"
      },
      {
        "deltaTime": 113,
        "channel": 0,
        "type": "channel",
        "noteNumber": 62,
        "velocity": 0,
        "subtype": "noteOff"
      },
      {
        "deltaTime": 7,
        "channel": 0,
        "type": "channel",
        "noteNumber": 64,
        "velocity": 80,
        "subtype": "noteOn"
      },
      {
        "deltaTime": 113,
        "channel": 0,
        "type": "channel",
        "noteNumber": 64,
        "velocity": 0,
        "subtype": "noteOff"
      },
      {
        "deltaTime": 7,
        "channel": 0,
        "type": "channel",
        "noteNumber": 65,
        "velocity": 80,
        "subtype": "noteOn"
      },
      {
        "deltaTime": 113,
        "channel": 0,
        "type": "channel",
        "noteNumber": 65,
        "velocity": 0,
        "subtype": "noteOff"
      },
      {
        "deltaTime": 7,
        "channel": 0,
        "type": "channel",
        "noteNumber": 67,
        "velocity": 80,
        "subtype": "noteOn"
      },
      {
        "deltaTime": 113,
        "channel": 0,
        "type": "channel",
        "noteNumber": 67,
        "velocity": 0,
        "subtype": "noteOff"
      },
      {
        "deltaTime": 7,
        "channel": 0,
        "type": "channel",
        "noteNumber": 62,
        "velocity": 80,
        "subtype": "noteOn"
      },
      {
        "deltaTime": 113,
        "channel": 0,
        "type": "channel",
        "noteNumber": 62,
        "velocity": 0,
        "subtype": "noteOff"
      },
      {
        "deltaTime": 7,
        "channel": 0,
        "type": "channel",
        "noteNumber": 59,
        "velocity": 80,
        "subtype": "noteOn"
      },
      {
        "deltaTime": 113,
        "channel": 0,
        "type": "channel",
        "noteNumber": 59,
        "velocity": 0,
        "subtype": "noteOff"
      },
      {
        "deltaTime": 7,
        "channel": 0,
        "type": "channel",
        "noteNumber": 60,
        "velocity": 80,
        "subtype": "noteOn"
      },
      {
        "deltaTime": 113,
        "channel": 0,
        "type": "channel",
        "noteNumber": 60,
        "velocity": 0,
        "subtype": "noteOff"
      },
      {
        "deltaTime": 7,
        "channel": 0,
        "type": "channel",
        "noteNumber": 62,
        "velocity": 80,
        "subtype": "noteOn"
      },
      {
        "deltaTime": 113,
        "channel": 0,
        "type": "channel",
        "noteNumber": 62,
        "velocity": 0,
        "subtype": "noteOff"
      },
      {
        "deltaTime": 7,
        "channel": 0,
        "type": "channel",
        "noteNumber": 64,
        "velocity": 80,
        "subtype": "noteOn"
      },
      {
        "deltaTime": 113,
        "channel": 0,
        "type": "channel",
        "noteNumber": 64,
        "velocity": 0,
        "subtype": "noteOff"
      },
      {
        "deltaTime": 7,
        "channel": 0,
        "type": "channel",
        "noteNumber": 62,
        "velocity": 80,
        "subtype": "noteOn"
      },
      {
        "deltaTime": 113,
        "channel": 0,
        "type": "channel",
        "noteNumber": 62,
        "velocity": 0,
        "subtype": "noteOff"
      },
      {
        "deltaTime": 7,
        "channel": 0,
        "type": "channel",
        "noteNumber": 60,
        "velocity": 80,
        "subtype": "noteOn"
      },
      {
        "deltaTime": 113,
        "channel": 0,
        "type": "channel",
        "noteNumber": 60,
        "velocity": 0,
        "subtype": "noteOff"
      },
      {
        "deltaTime": 7,
        "channel": 0,
        "type": "channel",
        "noteNumber": 65,
        "velocity": 80,
        "subtype": "noteOn"
      },
      {
        "deltaTime": 113,
        "channel": 0,
        "type": "channel",
        "noteNumber": 65,
        "velocity": 0,
        "subtype": "noteOff"
      },
      {
        "deltaTime": 7,
        "channel": 0,
        "type": "channel",
        "noteNumber": 60,
        "velocity": 80,
        "subtype": "noteOn"
      },
      {
        "deltaTime": 113,
        "channel": 0,
        "type": "channel",
        "noteNumber": 60,
        "velocity": 0,
        "subtype": "noteOff"
      },
      {
        "deltaTime": 7,
        "channel": 0,
        "type": "channel",
        "noteNumber": 57,
        "velocity": 80,
        "subtype": "noteOn"
      },
      {
        "deltaTime": 113,
        "channel": 0,
        "type": "channel",
        "noteNumber": 57,
        "velocity": 0,
        "subtype": "noteOff"
      },
      {
        "deltaTime": 7,
        "channel": 0,
        "type": "channel",
        "noteNumber": 59,
        "velocity": 80,
        "subtype": "noteOn"
      },
      {
        "deltaTime": 113,
        "channel": 0,
        "type": "channel",
        "noteNumber": 59,
        "velocity": 0,
        "subtype": "noteOff"
      },
      {
        "deltaTime": 7,
        "channel": 0,
        "type": "channel",
        "noteNumber": 60,
        "velocity": 80,
        "subtype": "noteOn"
      },
      {
        "deltaTime": 113,
        "channel": 0,
        "type": "channel",
        "noteNumber": 60,
        "velocity": 0,
        "subtype": "noteOff"
      },
      {
        "deltaTime": 7,
        "channel": 0,
        "type": "channel",
        "noteNumber": 62,
        "velocity": 80,
        "subtype": "noteOn"
      },
      {
        "deltaTime": 113,
        "channel": 0,
        "type": "channel",
        "noteNumber": 62,
        "velocity": 0,
        "subtype": "noteOff"
      },
      {
        "deltaTime": 7,
        "channel": 0,
        "type": "channel",
        "noteNumber": 60,
        "velocity": 80,
        "subtype": "noteOn"
      },
      {
        "deltaTime": 113,
        "channel": 0,
        "type": "channel",
        "noteNumber": 60,
        "velocity": 0,
        "subtype": "noteOff"
      },
      {
        "deltaTime": 7,
        "channel": 0,
        "type": "channel",
        "noteNumber": 59,
        "velocity": 80,
        "subtype": "noteOn"
      },
      {
        "deltaTime": 113,
        "channel": 0,
        "type": "channel",
        "noteNumber": 59,
        "velocity": 0,
        "subtype": "noteOff"
      },
      {
        "deltaTime": 7,
        "channel": 0,
        "type": "channel",
        "noteNumber": 64,
        "velocity": 80,
        "subtype": "noteOn"
      },
      {
        "deltaTime": 113,
        "channel": 0,
        "type": "channel",
        "noteNumber": 64,
        "velocity": 0,
        "subtype": "noteOff"
      },
      {
        "deltaTime": 7,
        "channel": 0,
        "type": "channel",
        "noteNumber": 59,
        "velocity": 80,
        "subtype": "noteOn"
      },
      {
        "deltaTime": 113,
        "channel": 0,
        "type": "channel",
        "noteNumber": 59,
        "velocity": 0,
        "subtype": "noteOff"
      },
      {
        "deltaTime": 7,
        "channel": 0,
        "type": "channel",
        "noteNumber": 55,
        "velocity": 80,
        "subtype": "noteOn"
      },
      {
        "deltaTime": 113,
        "channel": 0,
        "type": "channel",
        "noteNumber": 55,
        "velocity": 0,
        "subtype": "noteOff"
      },
      {
        "deltaTime": 7,
        "channel": 0,
        "type": "channel",
        "noteNumber": 57,
        "velocity": 80,
        "subtype": "noteOn"
      },
      {
        "deltaTime": 113,
        "channel": 0,
        "type": "channel",
        "noteNumber": 57,
        "velocity": 0,
        "subtype": "noteOff"
      },
      {
        "deltaTime": 7,
        "channel": 0,
        "type": "channel",
        "noteNumber": 59,
        "velocity": 80,
        "subtype": "noteOn"
      },
      {
        "deltaTime": 113,
        "channel": 0,
        "type": "channel",
        "noteNumber": 59,
        "velocity": 0,
        "subtype": "noteOff"
      },
      {
        "deltaTime": 7,
        "channel": 0,
        "type": "channel",
        "noteNumber": 60,
        "velocity": 80,
        "subtype": "noteOn"
      },
      {
        "deltaTime": 113,
        "channel": 0,
        "type": "channel",
        "noteNumber": 60,
        "velocity": 0,
        "subtype": "noteOff"
      },
      {
        "deltaTime": 7,
        "channel": 0,
        "type": "channel",
        "noteNumber": 59,
        "velocity": 80,
        "subtype": "noteOn"
      },
      {
        "deltaTime": 113,
        "channel": 0,
        "type": "channel",
        "noteNumber": 59,
        "velocity": 0,
        "subtype": "noteOff"
      },
      {
        "deltaTime": 7,
        "channel": 0,
        "type": "channel",
        "noteNumber": 57,
        "velocity": 80,
        "subtype": "noteOn"
      },
      {
        "deltaTime": 113,
        "channel": 0,
        "type": "channel",
        "noteNumber": 57,
        "velocity": 0,
        "subtype": "noteOff"
      },
      {
        "deltaTime": 7,
        "channel": 0,
        "type": "channel",
        "noteNumber": 62,
        "velocity": 80,
        "subtype": "noteOn"
      },
      {
        "deltaTime": 113,
        "channel": 0,
        "type": "channel",
        "noteNumber": 62,
        "velocity": 0,
        "subtype": "noteOff"
      },
      {
        "deltaTime": 7,
        "channel": 0,
        "type": "channel",
        "noteNumber": 57,
        "velocity": 80,
        "subtype": "noteOn"
      },
      {
        "deltaTime": 113,
        "channel": 0,
        "type": "channel",
        "noteNumber": 57,
        "velocity": 0,
        "subtype": "noteOff"
      },
      {
        "deltaTime": 7,
        "channel": 0,
        "type": "channel",
        "noteNumber": 53,
        "velocity": 80,
        "subtype": "noteOn"
      },
      {
        "deltaTime": 113,
        "channel": 0,
        "type": "channel",
        "noteNumber": 53,
        "velocity": 0,
        "subtype": "noteOff"
      },
      {
        "deltaTime": 7,
        "channel": 0,
        "type": "channel",
        "noteNumber": 55,
        "velocity": 80,
        "subtype": "noteOn"
      },
      {
        "deltaTime": 113,
        "channel": 0,
        "type": "channel",
        "noteNumber": 55,
        "velocity": 0,
        "subtype": "noteOff"
      },
      {
        "deltaTime": 7,
        "channel": 0,
        "type": "channel",
        "noteNumber": 57,
        "velocity": 80,
        "subtype": "noteOn"
      },
      {
        "deltaTime": 113,
        "channel": 0,
        "type": "channel",
        "noteNumber": 57,
        "velocity": 0,
        "subtype": "noteOff"
      },
      {
        "deltaTime": 7,
        "channel": 0,
        "type": "channel",
        "noteNumber": 59,
        "velocity": 80,
        "subtype": "noteOn"
      },
      {
        "deltaTime": 113,
        "channel": 0,
        "type": "channel",
        "noteNumber": 59,
        "velocity": 0,
        "subtype": "noteOff"
      },
      {
        "deltaTime": 7,
        "channel": 0,
        "type": "channel",
        "noteNumber": 57,
        "velocity": 80,
        "subtype": "noteOn"
      },
      {
        "deltaTime": 113,
        "channel": 0,
        "type": "channel",
        "noteNumber": 57,
        "velocity": 0,
        "subtype": "noteOff"
      },
      {
        "deltaTime": 7,
        "channel": 0,
        "type": "channel",
        "noteNumber": 55,
        "velocity": 80,
        "subtype": "noteOn"
      },
      {
        "deltaTime": 113,
        "channel": 0,
        "type": "channel",
        "noteNumber": 55,
        "velocity": 0,
        "subtype": "noteOff"
      },
      {
        "deltaTime": 7,
        "channel": 0,
        "type": "channel",
        "noteNumber": 60,
        "velocity": 80,
        "subtype": "noteOn"
      },
      {
        "deltaTime": 113,
        "channel": 0,
        "type": "channel",
        "noteNumber": 60,
        "velocity": 0,
        "subtype": "noteOff"
      },
      {
        "deltaTime": 7,
        "channel": 0,
        "type": "channel",
        "noteNumber": 55,
        "velocity": 80,
        "subtype": "noteOn"
      },
      {
        "deltaTime": 113,
        "channel": 0,
        "type": "channel",
        "noteNumber": 55,
        "velocity": 0,
        "subtype": "noteOff"
      },
      {
        "deltaTime": 7,
        "channel": 0,
        "type": "channel",
        "noteNumber": 52,
        "velocity": 80,
        "subtype": "noteOn"
      },
      {
        "deltaTime": 113,
        "channel": 0,
        "type": "channel",
        "noteNumber": 52,
        "velocity": 0,
        "subtype": "noteOff"
      },
      {
        "deltaTime": 7,
        "channel": 0,
        "type": "channel",
        "noteNumber": 53,
        "velocity": 80,
        "subtype": "noteOn"
      },
      {
        "deltaTime": 113,
        "channel": 0,
        "type": "channel",
        "noteNumber": 53,
        "velocity": 0,
        "subtype": "noteOff"
      },
      {
        "deltaTime": 7,
        "channel": 0,
        "type": "channel",
        "noteNumber": 55,
        "velocity": 80,
        "subtype": "noteOn"
      },
      {
        "deltaTime": 113,
        "channel": 0,
        "type": "channel",
        "noteNumber": 55,
        "velocity": 0,
        "subtype": "noteOff"
      },
      {
        "deltaTime": 7,
        "channel": 0,
        "type": "channel",
        "noteNumber": 57,
        "velocity": 80,
        "subtype": "noteOn"
      },
      {
        "deltaTime": 113,
        "channel": 0,
        "type": "channel",
        "noteNumber": 57,
        "velocity": 0,
        "subtype": "noteOff"
      },
      {
        "deltaTime": 7,
        "channel": 0,
        "type": "channel",
        "noteNumber": 55,
        "velocity": 80,
        "subtype": "noteOn"
      },
      {
        "deltaTime": 113,
        "channel": 0,
        "type": "channel",
        "noteNumber": 55,
        "velocity": 0,
        "subtype": "noteOff"
      },
      {
        "deltaTime": 7,
        "channel": 0,
        "type": "channel",
        "noteNumber": 53,
        "velocity": 80,
        "subtype": "noteOn"
      },
      {
        "deltaTime": 113,
        "channel": 0,
        "type": "channel",
        "noteNumber": 53,
        "velocity": 0,
        "subtype": "noteOff"
      },
      {
        "deltaTime": 7,
        "channel": 0,
        "type": "channel",
        "noteNumber": 59,
        "velocity": 80,
        "subtype": "noteOn"
      },
      {
        "deltaTime": 113,
        "channel": 0,
        "type": "channel",
        "noteNumber": 59,
        "velocity": 0,
        "subtype": "noteOff"
      },
      {
        "deltaTime": 7,
        "channel": 0,
        "type": "channel",
        "noteNumber": 53,
        "velocity": 80,
        "subtype": "noteOn"
      },
      {
        "deltaTime": 113,
        "channel": 0,
        "type": "channel",
        "noteNumber": 53,
        "velocity": 0,
        "subtype": "noteOff"
      },
      {
        "deltaTime": 7,
        "channel": 0,
        "type": "channel",
        "noteNumber": 50,
        "velocity": 80,
        "subtype": "noteOn"
      },
      {
        "deltaTime": 113,
        "channel": 0,
        "type": "channel",
        "noteNumber": 50,
        "velocity": 0,
        "subtype": "noteOff"
      },
      {
        "deltaTime": 7,
        "channel": 0,
        "type": "channel",
        "noteNumber": 52,
        "velocity": 80,
        "subtype": "noteOn"
      },
      {
        "deltaTime": 113,
        "channel": 0,
        "type": "channel",
        "noteNumber": 52,
        "velocity": 0,
        "subtype": "noteOff"
      },
      {
        "deltaTime": 7,
        "channel": 0,
        "type": "channel",
        "noteNumber": 53,
        "velocity": 80,
        "subtype": "noteOn"
      },
      {
        "deltaTime": 113,
        "channel": 0,
        "type": "channel",
        "noteNumber": 53,
        "velocity": 0,
        "subtype": "noteOff"
      },
      {
        "deltaTime": 7,
        "channel": 0,
        "type": "channel",
        "noteNumber": 55,
        "velocity": 80,
        "subtype": "noteOn"
      },
      {
        "deltaTime": 113,
        "channel": 0,
        "type": "channel",
        "noteNumber": 55,
        "velocity": 0,
        "subtype": "noteOff"
      },
      {
        "deltaTime": 7,
        "channel": 0,
        "type": "channel",
        "noteNumber": 53,
        "velocity": 80,
        "subtype": "noteOn"
      },
      {
        "deltaTime": 113,
        "channel": 0,
        "type": "channel",
        "noteNumber": 53,
        "velocity": 0,
        "subtype": "noteOff"
      },
      {
        "deltaTime": 7,
        "channel": 0,
        "type": "channel",
        "noteNumber": 52,
        "velocity": 80,
        "subtype": "noteOn"
      },
      {
        "deltaTime": 113,
        "channel": 0,
        "type": "channel",
        "noteNumber": 52,
        "velocity": 0,
        "subtype": "noteOff"
      },
      {
        "deltaTime": 7,
        "channel": 0,
        "type": "channel",
        "noteNumber": 57,
        "velocity": 80,
        "subtype": "noteOn"
      },
      {
        "deltaTime": 113,
        "channel": 0,
        "type": "channel",
        "noteNumber": 57,
        "velocity": 0,
        "subtype": "noteOff"
      },
      {
        "deltaTime": 7,
        "channel": 0,
        "type": "channel",
        "noteNumber": 52,
        "velocity": 80,
        "subtype": "noteOn"
      },
      {
        "deltaTime": 113,
        "channel": 0,
        "type": "channel",
        "noteNumber": 52,
        "velocity": 0,
        "subtype": "noteOff"
      },
      {
        "deltaTime": 7,
        "channel": 0,
        "type": "channel",
        "noteNumber": 48,
        "velocity": 80,
        "subtype": "noteOn"
      },
      {
        "deltaTime": 113,
        "channel": 0,
        "type": "channel",
        "noteNumber": 48,
        "velocity": 0,
        "subtype": "noteOff"
      },
      {
        "deltaTime": 7,
        "channel": 0,
        "type": "channel",
        "noteNumber": 50,
        "velocity": 80,
        "subtype": "noteOn"
      },
      {
        "deltaTime": 113,
        "channel": 0,
        "type": "channel",
        "noteNumber": 50,
        "velocity": 0,
        "subtype": "noteOff"
      },
      {
        "deltaTime": 7,
        "channel": 0,
        "type": "channel",
        "noteNumber": 52,
        "velocity": 80,
        "subtype": "noteOn"
      },
      {
        "deltaTime": 113,
        "channel": 0,
        "type": "channel",
        "noteNumber": 52,
        "velocity": 0,
        "subtype": "noteOff"
      },
      {
        "deltaTime": 7,
        "channel": 0,
        "type": "channel",
        "noteNumber": 53,
        "velocity": 80,
        "subtype": "noteOn"
      },
      {
        "deltaTime": 113,
        "channel": 0,
        "type": "channel",
        "noteNumber": 53,
        "velocity": 0,
        "subtype": "noteOff"
      },
      {
        "deltaTime": 7,
        "channel": 0,
        "type": "channel",
        "noteNumber": 52,
        "velocity": 80,
        "subtype": "noteOn"
      },
      {
        "deltaTime": 113,
        "channel": 0,
        "type": "channel",
        "noteNumber": 52,
        "velocity": 0,
        "subtype": "noteOff"
      },
      {
        "deltaTime": 7,
        "channel": 0,
        "type": "channel",
        "noteNumber": 50,
        "velocity": 80,
        "subtype": "noteOn"
      },
      {
        "deltaTime": 113,
        "channel": 0,
        "type": "channel",
        "noteNumber": 50,
        "velocity": 0,
        "subtype": "noteOff"
      },
      {
        "deltaTime": 7,
        "channel": 0,
        "type": "channel",
        "noteNumber": 55,
        "velocity": 80,
        "subtype": "noteOn"
      },
      {
        "deltaTime": 113,
        "channel": 0,
        "type": "channel",
        "noteNumber": 55,
        "velocity": 0,
        "subtype": "noteOff"
      },
      {
        "deltaTime": 7,
        "channel": 0,
        "type": "channel",
        "noteNumber": 50,
        "velocity": 80,
        "subtype": "noteOn"
      },
      {
        "deltaTime": 113,
        "channel": 0,
        "type": "channel",
        "noteNumber": 50,
        "velocity": 0,
        "subtype": "noteOff"
      },
      {
        "deltaTime": 7,
        "channel": 0,
        "type": "channel",
        "noteNumber": 47,
        "velocity": 80,
        "subtype": "noteOn"
      },
      {
        "deltaTime": 113,
        "channel": 0,
        "type": "channel",
        "noteNumber": 47,
        "velocity": 0,
        "subtype": "noteOff"
      },
      {
        "deltaTime": 7,
        "channel": 0,
        "type": "channel",
        "noteNumber": 48,
        "velocity": 80,
        "subtype": "noteOn"
      },
      {
        "deltaTime": 113,
        "channel": 0,
        "type": "channel",
        "noteNumber": 48,
        "velocity": 0,
        "subtype": "noteOff"
      },
      {
        "deltaTime": 7,
        "channel": 0,
        "type": "channel",
        "noteNumber": 50,
        "velocity": 80,
        "subtype": "noteOn"
      },
      {
        "deltaTime": 113,
        "channel": 0,
        "type": "channel",
        "noteNumber": 50,
        "velocity": 0,
        "subtype": "noteOff"
      },
      {
        "deltaTime": 7,
        "channel": 0,
        "type": "channel",
        "noteNumber": 52,
        "velocity": 80,
        "subtype": "noteOn"
      },
      {
        "deltaTime": 113,
        "channel": 0,
        "type": "channel",
        "noteNumber": 52,
        "velocity": 0,
        "subtype": "noteOff"
      },
      {
        "deltaTime": 7,
        "channel": 0,
        "type": "channel",
        "noteNumber": 50,
        "velocity": 80,
        "subtype": "noteOn"
      },
      {
        "deltaTime": 113,
        "channel": 0,
        "type": "channel",
        "noteNumber": 50,
        "velocity": 0,
        "subtype": "noteOff"
      },
      {
        "deltaTime": 7,
        "channel": 0,
        "type": "channel",
        "noteNumber": 48,
        "velocity": 80,
        "subtype": "noteOn"
      },
      {
        "deltaTime": 113,
        "channel": 0,
        "type": "channel",
        "noteNumber": 48,
        "velocity": 0,
        "subtype": "noteOff"
      },
      {
        "deltaTime": 7,
        "channel": 0,
        "type": "channel",
        "noteNumber": 53,
        "velocity": 80,
        "subtype": "noteOn"
      },
      {
        "deltaTime": 113,
        "channel": 0,
        "type": "channel",
        "noteNumber": 53,
        "velocity": 0,
        "subtype": "noteOff"
      },
      {
        "deltaTime": 7,
        "channel": 0,
        "type": "channel",
        "noteNumber": 48,
        "velocity": 80,
        "subtype": "noteOn"
      },
      {
        "deltaTime": 113,
        "channel": 0,
        "type": "channel",
        "noteNumber": 48,
        "velocity": 0,
        "subtype": "noteOff"
      },
      {
        "deltaTime": 7,
        "channel": 0,
        "type": "channel",
        "noteNumber": 45,
        "velocity": 80,
        "subtype": "noteOn"
      },
      {
        "deltaTime": 113,
        "channel": 0,
        "type": "channel",
        "noteNumber": 45,
        "velocity": 0,
        "subtype": "noteOff"
      },
      {
        "deltaTime": 7,
        "channel": 0,
        "type": "channel",
        "noteNumber": 47,
        "velocity": 80,
        "subtype": "noteOn"
      },
      {
        "deltaTime": 113,
        "channel": 0,
        "type": "channel",
        "noteNumber": 47,
        "velocity": 0,
        "subtype": "noteOff"
      },
      {
        "deltaTime": 7,
        "channel": 0,
        "type": "channel",
        "noteNumber": 48,
        "velocity": 80,
        "subtype": "noteOn"
      },
      {
        "deltaTime": 113,
        "channel": 0,
        "type": "channel",
        "noteNumber": 48,
        "velocity": 0,
        "subtype": "noteOff"
      },
      {
        "deltaTime": 7,
        "channel": 0,
        "type": "channel",
        "noteNumber": 50,
        "velocity": 80,
        "subtype": "noteOn"
      },
      {
        "deltaTime": 113,
        "channel": 0,
        "type": "channel",
        "noteNumber": 50,
        "velocity": 0,
        "subtype": "noteOff"
      },
      {
        "deltaTime": 7,
        "channel": 0,
        "type": "channel",
        "noteNumber": 48,
        "velocity": 80,
        "subtype": "noteOn"
      },
      {
        "deltaTime": 113,
        "channel": 0,
        "type": "channel",
        "noteNumber": 48,
        "velocity": 0,
        "subtype": "noteOff"
      },
      {
        "deltaTime": 7,
        "channel": 0,
        "type": "channel",
        "noteNumber": 47,
        "velocity": 80,
        "subtype": "noteOn"
      },
      {
        "deltaTime": 113,
        "channel": 0,
        "type": "channel",
        "noteNumber": 47,
        "velocity": 0,
        "subtype": "noteOff"
      },
      {
        "deltaTime": 7,
        "channel": 0,
        "type": "channel",
        "noteNumber": 52,
        "velocity": 80,
        "subtype": "noteOn"
      },
      {
        "deltaTime": 113,
        "channel": 0,
        "type": "channel",
        "noteNumber": 52,
        "velocity": 0,
        "subtype": "noteOff"
      },
      {
        "deltaTime": 7,
        "channel": 0,
        "type": "channel",
        "noteNumber": 47,
        "velocity": 80,
        "subtype": "noteOn"
      },
      {
        "deltaTime": 113,
        "channel": 0,
        "type": "channel",
        "noteNumber": 47,
        "velocity": 0,
        "subtype": "noteOff"
      },
      {
        "deltaTime": 7,
        "channel": 0,
        "type": "channel",
        "noteNumber": 43,
        "velocity": 80,
        "subtype": "noteOn"
      },
      {
        "deltaTime": 113,
        "channel": 0,
        "type": "channel",
        "noteNumber": 43,
        "velocity": 0,
        "subtype": "noteOff"
      },
      {
        "deltaTime": 7,
        "channel": 0,
        "type": "channel",
        "noteNumber": 45,
        "velocity": 80,
        "subtype": "noteOn"
      },
      {
        "deltaTime": 113,
        "channel": 0,
        "type": "channel",
        "noteNumber": 45,
        "velocity": 0,
        "subtype": "noteOff"
      },
      {
        "deltaTime": 7,
        "channel": 0,
        "type": "channel",
        "noteNumber": 47,
        "velocity": 80,
        "subtype": "noteOn"
      },
      {
        "deltaTime": 113,
        "channel": 0,
        "type": "channel",
        "noteNumber": 47,
        "velocity": 0,
        "subtype": "noteOff"
      },
      {
        "deltaTime": 7,
        "channel": 0,
        "type": "channel",
        "noteNumber": 48,
        "velocity": 80,
        "subtype": "noteOn"
      },
      {
        "deltaTime": 113,
        "channel": 0,
        "type": "channel",
        "noteNumber": 48,
        "velocity": 0,
        "subtype": "noteOff"
      },
      {
        "deltaTime": 7,
        "channel": 0,
        "type": "channel",
        "noteNumber": 47,
        "velocity": 80,
        "subtype": "noteOn"
      },
      {
        "deltaTime": 113,
        "channel": 0,
        "type": "channel",
        "noteNumber": 47,
        "velocity": 0,
        "subtype": "noteOff"
      },
      {
        "deltaTime": 7,
        "channel": 0,
        "type": "channel",
        "noteNumber": 45,
        "velocity": 80,
        "subtype": "noteOn"
      },
      {
        "deltaTime": 113,
        "channel": 0,
        "type": "channel",
        "noteNumber": 45,
        "velocity": 0,
        "subtype": "noteOff"
      },
      {
        "deltaTime": 7,
        "channel": 0,
        "type": "channel",
        "noteNumber": 50,
        "velocity": 80,
        "subtype": "noteOn"
      },
      {
        "deltaTime": 113,
        "channel": 0,
        "type": "channel",
        "noteNumber": 50,
        "velocity": 0,
        "subtype": "noteOff"
      },
      {
        "deltaTime": 7,
        "channel": 0,
        "type": "channel",
        "noteNumber": 45,
        "velocity": 80,
        "subtype": "noteOn"
      },
      {
        "deltaTime": 113,
        "channel": 0,
        "type": "channel",
        "noteNumber": 45,
        "velocity": 0,
        "subtype": "noteOff"
      },
      {
        "deltaTime": 7,
        "channel": 0,
        "type": "channel",
        "noteNumber": 41,
        "velocity": 80,
        "subtype": "noteOn"
      },
      {
        "deltaTime": 113,
        "channel": 0,
        "type": "channel",
        "noteNumber": 41,
        "velocity": 0,
        "subtype": "noteOff"
      },
      {
        "deltaTime": 7,
        "channel": 0,
        "type": "channel",
        "noteNumber": 43,
        "velocity": 80,
        "subtype": "noteOn"
      },
      {
        "deltaTime": 113,
        "channel": 0,
        "type": "channel",
        "noteNumber": 43,
        "velocity": 0,
        "subtype": "noteOff"
      },
      {
        "deltaTime": 7,
        "channel": 0,
        "type": "channel",
        "noteNumber": 45,
        "velocity": 80,
        "subtype": "noteOn"
      },
      {
        "deltaTime": 113,
        "channel": 0,
        "type": "channel",
        "noteNumber": 45,
        "velocity": 0,
        "subtype": "noteOff"
      },
      {
        "deltaTime": 7,
        "channel": 0,
        "type": "channel",
        "noteNumber": 47,
        "velocity": 80,
        "subtype": "noteOn"
      },
      {
        "deltaTime": 113,
        "channel": 0,
        "type": "channel",
        "noteNumber": 47,
        "velocity": 0,
        "subtype": "noteOff"
      },
      {
        "deltaTime": 7,
        "channel": 0,
        "type": "channel",
        "noteNumber": 45,
        "velocity": 80,
        "subtype": "noteOn"
      },
      {
        "deltaTime": 113,
        "channel": 0,
        "type": "channel",
        "noteNumber": 45,
        "velocity": 0,
        "subtype": "noteOff"
      },
      {
        "deltaTime": 7,
        "channel": 0,
        "type": "channel",
        "noteNumber": 43,
        "velocity": 80,
        "subtype": "noteOn"
      },
      {
        "deltaTime": 113,
        "channel": 0,
        "type": "channel",
        "noteNumber": 43,
        "velocity": 0,
        "subtype": "noteOff"
      },
      {
        "deltaTime": 7,
        "channel": 0,
        "type": "channel",
        "noteNumber": 48,
        "velocity": 80,
        "subtype": "noteOn"
      },
      {
        "deltaTime": 113,
        "channel": 0,
        "type": "channel",
        "noteNumber": 48,
        "velocity": 0,
        "subtype": "noteOff"
      },
      {
        "deltaTime": 7,
        "channel": 0,
        "type": "channel",
        "noteNumber": 43,
        "velocity": 80,
        "subtype": "noteOn"
      },
      {
        "deltaTime": 113,
        "channel": 0,
        "type": "channel",
        "noteNumber": 43,
        "velocity": 0,
        "subtype": "noteOff"
      },
      {
        "deltaTime": 7,
        "channel": 0,
        "type": "channel",
        "noteNumber": 40,
        "velocity": 80,
        "subtype": "noteOn"
      },
      {
        "deltaTime": 113,
        "channel": 0,
        "type": "channel",
        "noteNumber": 40,
        "velocity": 0,
        "subtype": "noteOff"
      },
      {
        "deltaTime": 7,
        "channel": 0,
        "type": "channel",
        "noteNumber": 41,
        "velocity": 80,
        "subtype": "noteOn"
      },
      {
        "deltaTime": 113,
        "channel": 0,
        "type": "channel",
        "noteNumber": 41,
        "velocity": 0,
        "subtype": "noteOff"
      },
      {
        "deltaTime": 7,
        "channel": 0,
        "type": "channel",
        "noteNumber": 43,
        "velocity": 80,
        "subtype": "noteOn"
      },
      {
        "deltaTime": 113,
        "channel": 0,
        "type": "channel",
        "noteNumber": 43,
        "velocity": 0,
        "subtype": "noteOff"
      },
      {
        "deltaTime": 7,
        "channel": 0,
        "type": "channel",
        "noteNumber": 45,
        "velocity": 80,
        "subtype": "noteOn"
      },
      {
        "deltaTime": 113,
        "channel": 0,
        "type": "channel",
        "noteNumber": 45,
        "velocity": 0,
        "subtype": "noteOff"
      },
      {
        "deltaTime": 7,
        "channel": 0,
        "type": "channel",
        "noteNumber": 43,
        "velocity": 80,
        "subtype": "noteOn"
      },
      {
        "deltaTime": 113,
        "channel": 0,
        "type": "channel",
        "noteNumber": 43,
        "velocity": 0,
        "subtype": "noteOff"
      },
      {
        "deltaTime": 7,
        "channel": 0,
        "type": "channel",
        "noteNumber": 41,
        "velocity": 80,
        "subtype": "noteOn"
      },
      {
        "deltaTime": 113,
        "channel": 0,
        "type": "channel",
        "noteNumber": 41,
        "velocity": 0,
        "subtype": "noteOff"
      },
      {
        "deltaTime": 7,
        "channel": 0,
        "type": "channel",
        "noteNumber": 47,
        "velocity": 80,
        "subtype": "noteOn"
      },
      {
        "deltaTime": 113,
        "channel": 0,
        "type": "channel",
        "noteNumber": 47,
        "velocity": 0,
        "subtype": "noteOff"
      },
      {
        "deltaTime": 7,
        "channel": 0,
        "type": "channel",
        "noteNumber": 41,
        "velocity": 80,
        "subtype": "noteOn"
      },
      {
        "deltaTime": 113,
        "channel": 0,
        "type": "channel",
        "noteNumber": 41,
        "velocity": 0,
        "subtype": "noteOff"
      },
      {
        "deltaTime": 7,
        "channel": 0,
        "type": "channel",
        "noteNumber": 38,
        "velocity": 80,
        "subtype": "noteOn"
      },
      {
        "deltaTime": 113,
        "channel": 0,
        "type": "channel",
        "noteNumber": 38,
        "velocity": 0,
        "subtype": "noteOff"
      },
      {
        "deltaTime": 7,
        "channel": 0,
        "type": "channel",
        "noteNumber": 40,
        "velocity": 80,
        "subtype": "noteOn"
      },
      {
        "deltaTime": 113,
        "channel": 0,
        "type": "channel",
        "noteNumber": 40,
        "velocity": 0,
        "subtype": "noteOff"
      },
      {
        "deltaTime": 7,
        "channel": 0,
        "type": "channel",
        "noteNumber": 41,
        "velocity": 80,
        "subtype": "noteOn"
      },
      {
        "deltaTime": 113,
        "channel": 0,
        "type": "channel",
        "noteNumber": 41,
        "velocity": 0,
        "subtype": "noteOff"
      },
      {
        "deltaTime": 7,
        "channel": 0,
        "type": "channel",
        "noteNumber": 43,
        "velocity": 80,
        "subtype": "noteOn"
      },
      {
        "deltaTime": 113,
        "channel": 0,
        "type": "channel",
        "noteNumber": 43,
        "velocity": 0,
        "subtype": "noteOff"
      },
      {
        "deltaTime": 7,
        "channel": 0,
        "type": "channel",
        "noteNumber": 41,
        "velocity": 80,
        "subtype": "noteOn"
      },
      {
        "deltaTime": 113,
        "channel": 0,
        "type": "channel",
        "noteNumber": 41,
        "velocity": 0,
        "subtype": "noteOff"
      },
      {
        "deltaTime": 7,
        "channel": 0,
        "type": "channel",
        "noteNumber": 40,
        "velocity": 80,
        "subtype": "noteOn"
      },
      {
        "deltaTime": 113,
        "channel": 0,
        "type": "channel",
        "noteNumber": 40,
        "velocity": 0,
        "subtype": "noteOff"
      },
      {
        "deltaTime": 7,
        "channel": 0,
        "type": "channel",
        "noteNumber": 45,
        "velocity": 80,
        "subtype": "noteOn"
      },
      {
        "deltaTime": 113,
        "channel": 0,
        "type": "channel",
        "noteNumber": 45,
        "velocity": 0,
        "subtype": "noteOff"
      },
      {
        "deltaTime": 7,
        "channel": 0,
        "type": "channel",
        "noteNumber": 40,
        "velocity": 80,
        "subtype": "noteOn"
      },
      {
        "deltaTime": 113,
        "channel": 0,
        "type": "channel",
        "noteNumber": 40,
        "velocity": 0,
        "subtype": "noteOff"
      },
      {
        "deltaTime": 7,
        "channel": 0,
        "type": "channel",
        "noteNumber": 36,
        "velocity": 80,
        "subtype": "noteOn"
      },
      {
        "deltaTime": 113,
        "channel": 0,
        "type": "channel",
        "noteNumber": 36,
        "velocity": 0,
        "subtype": "noteOff"
      },
      {
        "deltaTime": 7,
        "channel": 0,
        "type": "channel",
        "noteNumber": 38,
        "velocity": 80,
        "subtype": "noteOn"
      },
      {
        "deltaTime": 113,
        "channel": 0,
        "type": "channel",
        "noteNumber": 38,
        "velocity": 0,
        "subtype": "noteOff"
      },
      {
        "deltaTime": 7,
        "channel": 0,
        "type": "channel",
        "noteNumber": 40,
        "velocity": 80,
        "subtype": "noteOn"
      },
      {
        "deltaTime": 113,
        "channel": 0,
        "type": "channel",
        "noteNumber": 40,
        "velocity": 0,
        "subtype": "noteOff"
      },
      {
        "deltaTime": 7,
        "channel": 0,
        "type": "channel",
        "noteNumber": 41,
        "velocity": 80,
        "subtype": "noteOn"
      },
      {
        "deltaTime": 113,
        "channel": 0,
        "type": "channel",
        "noteNumber": 41,
        "velocity": 0,
        "subtype": "noteOff"
      },
      {
        "deltaTime": 7,
        "channel": 0,
        "type": "channel",
        "noteNumber": 40,
        "velocity": 80,
        "subtype": "noteOn"
      },
      {
        "deltaTime": 113,
        "channel": 0,
        "type": "channel",
        "noteNumber": 40,
        "velocity": 0,
        "subtype": "noteOff"
      },
      {
        "deltaTime": 7,
        "channel": 0,
        "type": "channel",
        "noteNumber": 38,
        "velocity": 80,
        "subtype": "noteOn"
      },
      {
        "deltaTime": 113,
        "channel": 0,
        "type": "channel",
        "noteNumber": 38,
        "velocity": 0,
        "subtype": "noteOff"
      },
      {
        "deltaTime": 1,
        "type": "meta",
        "subtype": "endOfTrack"
      }
    ]
  ]
}