{
  "header": {
    "formatType": 1,
    "trackCount": 2,
    "ticksPerBeat": 480
  },
  "tracks": [
    [
      {
        "deltaTime": 0,
        "type": "meta",
        "subtype": "trackName",
        "text": "Piano\u0000"
      },
      {
        "deltaTime": 0,
        "type": "meta",
        "subtype": "timeSignature",
        "numerator": 4,
        "denominator": 4,
        "metronome": 24,
        "thirtyseconds": 8
      },
      {
        "deltaTime": 0,
        "type": "meta",
        "subtype": "keySignature",
        "key": 0,
        "scale": 0
      },
      {
        "deltaTime": 0,
        "type": "meta",
        "subtype": "setTempo",
        "microsecondsPerBeat": 500000
      },
      {
        "deltaTime": 0,
        "channel": 0,
        "type": "channel",
        "subtype": "controller",
        "controllerType": 121,
        "value": 0
      },
      {
        "deltaTime": 0,
        "channel": 0,
        "type": "channel",
        "subtype": "programChange",
        "programNumber": 0
      },
      {
        "deltaTime": 0,
        "channel": 0,
        "type": "channel",
        "subtype": "controller",
        "controllerType": 7,
        "value": 100
      },
      {
        "deltaTime": 0,
        "channel": 0,
        "type": "channel",
        "subtype": "controller",
        "controllerType": 10,
        "value": 63
      },
      {
        "deltaTime": 0,
        "channel": 0,
        "type": "channel",
        "subtype": "controller",
        "controllerType": 91,
        "value": 0
      },
      {
        "deltaTime": 0,
        "channel": 0,
        "type": "channel",
        "subtype": "controller",
        "controllerType": 93,
        "value": 0
      },
      {
        "deltaTime": 0,
        "type": "meta",
        "subtype": "unknown",
        "data": "\u0000"
      },
      {
        "deltaTime": 480,
        "channel": 0,
        "type": "channel",
        "noteNumber": 76,
        "velocity": 80,
        "subtype": "noteOn"
      },
      {
        "deltaTime": 227,
        "channel": 0,
        "type": "channel",
        "noteNumber": 76,
        "velocity": 0,
        "subtype": "noteOff"
      },
      {
        "deltaTime": 13,
        "channel": 0,
        "type": "channel",
        "noteNumber": 74,
        "velocity": 80,
        "subtype": "noteOn"
      },
      {
        "deltaTime": 227,
        "channel": 0,
        "type": "channel",
        "noteNumber": 74,
        "velocity": 0,
        "subtype": "noteOff"
      },
      {
        "deltaTime": 13,
        "channel": 0,
        "type": "channel",
        "noteNumber": 76,
        "velocity": 80,
        "subtype": "noteOn"
      },
      {
        "deltaTime": 227,
        "channel": 0,
        "type": "channel",
        "noteNumber": 76,
        "velocity": 0,
        "subtype": "noteOff"
      },
      {
        "deltaTime": 13,
        "channel": 0,
        "type": "channel",
        "noteNumber": 74,
        "velocity": 80,
        "subtype": "noteOn"
      },
      {
        "deltaTime": 227,
        "channel": 0,
        "type": "channel",
        "noteNumber": 74,
        "velocity": 0,
        "subtype": "noteOff"
      },
      {
        "deltaTime": 973,
        "channel": 0,
        "type": "channel",
        "noteNumber": 74,
        "velocity": 80,
        "subtype": "noteOn"
      },
      {
        "deltaTime": 227,
        "channel": 0,
        "type": "channel",
        "noteNumber": 74,
        "velocity": 0,
        "subtype": "noteOff"
      },
      {
        "deltaTime": 13,
        "channel": 0,
        "type": "channel",
        "noteNumber": 74,
        "velocity": 80,
        "subtype": "noteOn"
      },
      {
        "deltaTime": 227,
        "channel": 0,
        "type": "channel",
        "noteNumber": 74,
        "velocity": 0,
        "subtype": "noteOff"
      },
      {
        "deltaTime": 13,
        "channel": 0,
        "type": "channel",
        "noteNumber": 76,
        "velocity": 80,
        "subtype": "noteOn"
      },
      {
        "deltaTime": 227,
        "channel": 0,
        "type": "channel",
        "noteNumber": 76,
        "velocity": 0,
        "subtype": "noteOff"
      },
      {
        "deltaTime": 13,
        "channel": 0,
        "type": "channel",
        "noteNumber": 78,
        "velocity": 80,
        "subtype": "noteOn"
      },
      {
        "deltaTime": 227,
        "channel": 0,
        "type": "channel",
        "noteNumber": 78,
        "velocity": 0,
        "subtype": "noteOff"
      },
      {
        "deltaTime": 13,
        "channel": 0,
        "type": "channel",
        "noteNumber": 76,
        "velocity": 80,
        "subtype": "noteOn"
      },
      {
        "deltaTime": 227,
        "channel": 0,
        "type": "channel",
        "noteNumber": 76,
        "velocity": 0,
        "subtype": "noteOff"
      },
      {
        "deltaTime": 13,
        "channel": 0,
        "type": "channel",
        "noteNumber": 74,
        "velocity": 80,
        "subtype": "noteOn"
      },
      {
        "deltaTime": 227,
        "channel": 0,
        "type": "channel",
        "noteNumber": 74,
        "velocity": 0,
        "subtype": "noteOff"
      },
      {
        "deltaTime": 493,
        "channel": 0,
        "type": "channel",
        "noteNumber": 76,
        "velocity": 80,
        "subtype": "noteOn"
      },
      {
        "deltaTime": 455,
        "channel": 0,
        "type": "channel",
        "noteNumber": 76,
        "velocity": 0,
        "subtype": "noteOff"
      },
      {
        "deltaTime": 25,
        "channel": 0,
        "type": "channel",
        "noteNumber": 74,
        "velocity": 80,
        "subtype": "noteOn"
      },
      {
        "deltaTime": 683,
        "channel": 0,
        "type": "channel",
        "noteNumber": 74,
        "velocity": 0,
        "subtype": "noteOff"
      },
      {
        "deltaTime": 37,
        "channel": 0,
        "type": "channel",
        "noteNumber": 79,
        "velocity": 80,
        "subtype": "noteOn"
      },
      {
        "deltaTime": 455,
        "channel": 0,
        "type": "channel",
        "noteNumber": 79,
        "velocity": 0,
        "subtype": "noteOff"
      },
      {
        "deltaTime": 25,
        "channel": 0,
        "type": "channel",
        "noteNumber": 79,
        "velocity": 80,
        "subtype": "noteOn"
      },
      {
        "deltaTime": 227,
        "channel": 0,
        "type": "channel",
        "noteNumber": 79,
        "velocity": 0,
        "subtype": "noteOff"
      },
      {
        "deltaTime": 13,
        "channel": 0,
        "type": "channel",
        "noteNumber": 79,
        "velocity": 80,
        "subtype": "noteOn"
      },
      {
        "deltaTime": 227,
        "channel": 0,
        "type": "channel",
        "noteNumber": 79,
        "velocity": 0,
        "subtype": "noteOff"
      },
      {
        "deltaTime": 13,
        "channel": 0,
        "type": "channel",
        "noteNumber": 79,
        "velocity": 80,
        "subtype": "noteOn"
      },
      {
        "deltaTime": 227,
        "channel": 0,
        "type": "channel",
        "noteNumber": 79,
        "velocity": 0,
        "subtype": "noteOff"
      },
      {
        "deltaTime": 13,
        "channel": 0,
        "type": "channel",
        "noteNumber": 78,
        "velocity": 80,
        "subtype": "noteOn"
      },
      {
        "deltaTime": 455,
        "channel": 0,
        "type": "channel",
        "noteNumber": 78,
        "velocity": 0,
        "subtype": "noteOff"
      },
      {
        "deltaTime": 25,
        "channel": 0,
        "type": "channel",
        "noteNumber": 74,
        "velocity": 80,
        "subtype": "noteOn"
      },
      {
        "deltaTime": 455,
        "channel": 0,
        "type": "channel",
        "noteNumber": 74,
        "velocity": 0,
        "subtype": "noteOff"
      },
      {
        "deltaTime": 505,
        "channel": 0,
        "type": "channel",
        "noteNumber": 76,
        "velocity": 80,
        "subtype": "noteOn"
      },
      {
        "deltaTime": 227,
        "channel": 0,
        "type": "channel",
        "noteNumber": 76,
        "velocity": 0,
        "subtype": "noteOff"
      },
      {
        "deltaTime": 13,
        "channel": 0,
        "type": "channel",
        "noteNumber": 74,
        "velocity": 80,
        "subtype": "noteOn"
      },
      {
        "deltaTime": 227,
        "channel": 0,
        "type": "channel",
        "noteNumber": 74,
        "velocity": 0,
        "subtype": "noteOff"
      },
      {
        "deltaTime": 13,
        "channel": 0,
        "type": "channel",
        "noteNumber": 76,
        "velocity": 80,
        "subtype": "noteOn"
      },
      {
        "deltaTime": 227,
        "channel": 0,
        "type": "channel",
        "noteNumber": 76,
        "velocity": 0,
        "subtype": "noteOff"
      },
      {
        "deltaTime": 13,
        "channel": 0,
        "type": "channel",
        "noteNumber": 74,
        "velocity": 80,
        "subtype": "noteOn"
      },
      {
        "deltaTime": 227,
        "channel": 0,
        "type": "channel",
        "noteNumber": 74,
        "velocity": 0,
        "subtype": "noteOff"
      },
      {
        "deltaTime": 973,
        "channel": 0,
        "type": "channel",
        "noteNumber": 74,
        "velocity": 80,
        "subtype": "noteOn"
      },
      {
        "deltaTime": 227,
        "channel": 0,
        "type": "channel",
        "noteNumber": 74,
        "velocity": 0,
        "subtype": "noteOff"
      },
      {
        "deltaTime": 13,
        "channel": 0,
        "type": "channel",
        "noteNumber": 74,
        "velocity": 80,
        "subtype": "noteOn"
      },
      {
        "deltaTime": 227,
        "channel": 0,
        "type": "channel",
        "noteNumber": 74,
        "velocity": 0,
        "subtype": "noteOff"
      },
      {
        "deltaTime": 13,
        "channel": 0,
        "type": "channel",
        "noteNumber": 76,
        "velocity": 80,
        "subtype": "noteOn"
      },
      {
        "deltaTime": 227,
        "channel": 0,
        "type": "channel",
        "noteNumber": 76,
        "velocity": 0,
        "subtype": "noteOff"
      },
      {
        "deltaTime": 13,
        "channel": 0,
        "type": "channel",
        "noteNumber": 78,
        "velocity": 80,
        "subtype": "noteOn"
      },
      {
        "deltaTime": 227,
        "channel": 0,
        "type": "channel",
        "noteNumber": 78,
        "velocity": 0,
        "subtype": "noteOff"
      },
      {
        "deltaTime": 13,
        "channel": 0,
        "type": "channel",
        "noteNumber": 76,
        "velocity": 80,
        "subtype": "noteOn"
      },
      {
        "deltaTime": 227,
        "channel": 0,
        "type": "channel",
        "noteNumber": 76,
        "velocity": 0,
        "subtype": "noteOff"
      },
      {
        "deltaTime": 13,
        "channel": 0,
        "type": "channel",
        "noteNumber": 74,
        "velocity": 80,
        "subtype": "noteOn"
      },
      {
        "deltaTime": 227,
        "channel": 0,
        "type": "channel",
        "noteNumber": 74,
        "velocity": 0,
        "subtype": "noteOff"
      },
      {
        "deltaTime": 493,
        "channel": 0,
        "type": "channel",
        "noteNumber": 76,
        "velocity": 80,
        "subtype": "noteOn"
      },
      {
        "deltaTime": 455,
        "channel": 0,
        "type": "channel",
        "noteNumber": 76,
        "velocity": 0,
        "subtype": "noteOff"
      },
      {
        "deltaTime": 25,
        "channel": 0,
        "type": "channel",
        "noteNumber": 74,
        "velocity": 80,
        "subtype": "noteOn"
      },
      {
        "deltaTime": 683,
        "channel": 0,
        "type": "channel",
        "noteNumber": 74,
        "velocity": 0,
        "subtype": "noteOff"
      },
      {
        "deltaTime": 37,
        "channel": 0,
        "type": "channel",
        "noteNumber": 79,
        "velocity": 80,
        "subtype": "noteOn"
      },
      {
        "deltaTime": 455,
        "channel": 0,
        "type": "channel",
        "noteNumber": 79,
        "velocity": 0,
        "subtype": "noteOff"
      },
      {
        "deltaTime": 25,
        "channel": 0,
        "type": "channel",
        "noteNumber": 79,
        "velocity": 80,
        "subtype": "noteOn"
      },
      {
        "deltaTime": 227,
        "channel": 0,
        "type": "channel",
        "noteNumber": 79,
        "velocity": 0,
        "subtype": "noteOff"
      },
      {
        "deltaTime": 13,
        "channel": 0,
        "type": "channel",
        "noteNumber": 79,
        "velocity": 80,
        "subtype": "noteOn"
      },
      {
        "deltaTime": 227,
        "channel": 0,
        "type": "channel",
        "noteNumber": 79,
        "velocity": 0,
        "subtype": "noteOff"
      },
      {
        "deltaTime": 13,
        "channel": 0,
        "type": "channel",
        "noteNumber": 79,
        "velocity": 80,
        "subtype": "noteOn"
      },
      {
        "deltaTime": 227,
        "channel": 0,
        "type": "channel",
        "noteNumber": 79,
        "velocity": 0,
        "subtype": "noteOff"
      },
      {
        "deltaTime": 13,
        "channel": 0,
        "type": "channel",
        "noteNumber": 78,
        "velocity": 80,
        "subtype": "noteOn"
      },
      {
        "deltaTime": 455,
        "channel": 0,
        "type": "channel",
        "noteNumber": 78,
        "velocity": 0,
        "subtype": "noteOff"
      },
      {
        "deltaTime": 25,
        "channel": 0,
        "type": "channel",
        "noteNumber": 74,
        "velocity": 80,
        "subtype": "noteOn"
      },
      {
        "deltaTime": 455,
        "channel": 0,
        "type": "channel",
        "noteNumber": 74,
        "velocity": 0,
        "subtype": "noteOff"
      },
      {
        "deltaTime": 505,
        "channel": 0,
        "type": "channel",
        "noteNumber": 81,
        "velocity": 80,
        "subtype": "noteOn"
      },
      {
        "deltaTime": 683,
        "channel": 0,
        "type": "channel",
        "noteNumber": 81,
        "velocity": 0,
        "subtype": "noteOff"
      },
      {
        "deltaTime": 37,
        "channel": 0,
        "type": "channel",
        "noteNumber": 81,
        "velocity": 80,
        "subtype": "noteOn"
      },
      {
        "deltaTime": 227,
        "channel": 0,
        "type": "channel",
        "noteNumber": 81,
        "velocity": 0,
        "subtype": "noteOff"
      },
      {
        "deltaTime": 13,
        "channel": 0,
        "type": "channel",
        "noteNumber": 81,
        "velocity": 80,
        "subtype": "noteOn"
      },
      {
        "deltaTime": 227,
        "channel": 0,
        "type": "channel",
        "noteNumber": 81,
        "velocity": 0,
        "subtype": "noteOff"
      },
      {
        "deltaTime": 13,
        "channel": 0,
        "type": "channel",
        "noteNumber": 81,
        "velocity": 80,
        "subtype": "noteOn"
      },
      {
        "deltaTime": 455,
        "channel": 0,
        "type": "channel",
        "noteNumber": 81,
        "velocity": 0,
        "subtype": "noteOff"
      },
      {
        "deltaTime": 25,
        "channel": 0,
        "type": "channel",
        "noteNumber": 76,
        "velocity": 80,
        "subtype": "noteOn"
      },
      {
        "deltaTime": 455,
        "channel": 0,
        "type": "channel",
        "noteNumber": 76,
        "velocity": 0,
        "subtype": "noteOff"
      },
      {
        "deltaTime": 25,
        "channel": 0,
        "type": "channel",
        "noteNumber": 78,
        "velocity": 80,
        "subtype": "noteOn"
      },
      {
        "deltaTime": 455,
        "channel": 0,
        "type": "channel",
        "noteNumber": 78,
        "velocity": 0,
        "subtype": "noteOff"
      },
      {
        "deltaTime": 25,
        "channel": 0,
        "type": "channel",
        "noteNumber": 79,
        "velocity": 80,
        "subtype": "noteOn"
      },
      {
        "deltaTime": 683,
        "channel": 0,
        "type": "channel",
        "noteNumber": 79,
        "velocity": 0,
        "subtype": "noteOff"
      },
      {
        "deltaTime": 517,
        "channel": 0,
        "type": "channel",
        "noteNumber": 78,
        "velocity": 80,
        "subtype": "noteOn"
      },
      {
        "deltaTime": 683,
        "channel": 0,
        "type": "channel",
        "noteNumber": 78,
        "velocity": 0,
        "subtype": "noteOff"
      },
      {
        "deltaTime": 37,
        "channel": 0,
        "type": "channel",
        "noteNumber": 78,
        "velocity": 80,
        "subtype": "noteOn"
      },
      {
        "deltaTime": 227,
        "channel": 0,
        "type": "channel",
        "noteNumber": 78,
        "velocity": 0,
        "subtype": "noteOff"
      },
      {
        "deltaTime": 13,
        "channel": 0,
        "type": "channel",
        "noteNumber": 78,
        "velocity": 80,
        "subtype": "noteOn"
      },
      {
        "deltaTime": 227,
        "channel": 0,
        "type": "channel",
        "noteNumber": 78,
        "velocity": 0,
        "subtype": "noteOff"
      },
      {
        "deltaTime": 13,
        "channel": 0,
        "type": "channel",
        "noteNumber": 78,
        "velocity": 80,
        "subtype": "noteOn"
      },
      {
        "deltaTime": 455,
        "channel": 0,
        "type": "channel",
        "noteNumber": 78,
        "velocity": 0,
        "subtype": "noteOff"
      },
      {
        "deltaTime": 25,
        "channel": 0,
        "type": "channel",
        "noteNumber": 73,
        "velocity": 80,
        "subtype": "noteOn"
      },
      {
        "deltaTime": 455,
        "channel": 0,
        "type": "channel",
        "noteNumber": 73,
        "velocity": 0,
        "subtype": "noteOff"
      },
      {
        "deltaTime": 25,
        "channel": 0,
        "type": "channel",
        "noteNumber": 74,
        "velocity": 80,
        "subtype": "noteOn"
      },
      {
        "deltaTime": 455,
        "channel": 0,
        "type": "channel",
        "noteNumber": 74,
        "velocity": 0,
        "subtype": "noteOff"
      },
      {
        "deltaTime": 25,
        "channel": 0,
        "type": "channel",
        "noteNumber": 76,
        "velocity": 80,
        "subtype": "noteOn"
      },
      {
        "deltaTime": 683,
        "channel": 0,
        "type": "channel",
        "noteNumber": 76,
        "velocity": 0,
        "subtype": "noteOff"
      },
      {
        "deltaTime": 517,
        "channel": 0,
        "type": "channel",
        "noteNumber": 76,
        "velocity": 80,
        "subtype": "noteOn"
      },
      {
        "deltaTime": 455,
        "channel": 0,
        "type": "channel",
        "noteNumber": 76,
        "velocity": 0,
        "subtype": "noteOff"
      },
      {
        "deltaTime": 25,
        "channel": 0,
        "type": "channel",
        "noteNumber": 74,
        "velocity": 80,
        "subtype": "noteOn"
      },
      {
        "deltaTime": 683,
        "channel": 0,
        "type": "channel",
        "noteNumber": 74,
        "velocity": 0,
        "subtype": "noteOff"
      },
      {
        "deltaTime": 37,
        "channel": 0,
        "type": "channel",
        "noteNumber": 79,
        "velocity": 80,
        "subtype": "noteOn"
      },
      {
        "deltaTime": 455,
        "channel": 0,
        "type": "channel",
        "noteNumber": 79,
        "velocity": 0,
        "subtype": "noteOff"
      },
      {
        "deltaTime": 25,
        "channel": 0,
        "type": "channel",
        "noteNumber": 79,
        "velocity": 80,
        "subtype": "noteOn"
      },
      {
        "deltaTime": 227,
        "channel": 0,
        "type": "channel",
        "noteNumber": 79,
        "velocity": 0,
        "subtype": "noteOff"
      },
      {
        "deltaTime": 13,
        "channel": 0,
        "type": "channel",
        "noteNumber": 78,
        "velocity": 80,
        "subtype": "noteOn"
      },
      {
        "deltaTime": 227,
        "channel": 0,
        "type": "channel",
        "noteNumber": 78,
        "velocity": 0,
        "subtype": "noteOff"
      },
      {
        "deltaTime": 13,
        "channel": 0,
        "type": "channel",
        "noteNumber": 74,
        "velocity": 80,
        "subtype": "noteOn"
      },
      {
        "deltaTime": 227,
        "channel": 0,
        "type": "channel",
        "noteNumber": 74,
        "velocity": 0,
        "subtype": "noteOff"
      },
      {
        "deltaTime": 13,
        "channel": 0,
        "type": "channel",
        "noteNumber": 76,
        "velocity": 80,
        "subtype": "noteOn"
      },
      {
        "deltaTime": 227,
        "channel": 0,
        "type": "channel",
        "noteNumber": 76,
        "velocity": 0,
        "subtype": "noteOff"
      },
      {
        "deltaTime": 13,
        "channel": 0,
        "type": "channel",
        "noteNumber": 74,
        "velocity": 80,
        "subtype": "noteOn"
      },
      {
        "deltaTime": 227,
        "channel": 0,
        "type": "channel",
        "noteNumber": 74,
        "velocity": 0,
        "subtype": "noteOff"
      },
      {
        "deltaTime": 13,
        "channel": 0,
        "type": "channel",
        "noteNumber": 76,
        "velocity": 80,
        "subtype": "noteOn"
      },
      {
        "deltaTime": 227,
        "channel": 0,
        "type": "channel",
        "noteNumber": 76,
        "velocity": 0,
        "subtype": "noteOff"
      },
      {
        "deltaTime": 13,
        "channel": 0,
        "type": "channel",
        "noteNumber": 74,
        "velocity": 80,
        "subtype": "noteOn"
      },
      {
        "deltaTime": 227,
        "channel": 0,
        "type": "channel",
        "noteNumber": 74,
        "velocity": 0,
        "subtype": "noteOff"
      },
      {
        "deltaTime": 13,
        "channel": 0,
        "type": "channel",
        "noteNumber": 74,
        "velocity": 80,
        "subtype": "noteOn"
      },
      {
        "deltaTime": 455,
        "channel": 0,
        "type": "channel",
        "noteNumber": 74,
        "velocity": 0,
        "subtype": "noteOff"
      },
      {
        "deltaTime": 25,
        "channel": 0,
        "type": "channel",
        "noteNumber": 76,
        "velocity": 80,
        "subtype": "noteOn"
      },
      {
        "deltaTime": 227,
        "channel": 0,
        "type": "channel",
        "noteNumber": 76,
        "velocity": 0,
        "subtype": "noteOff"
      },
      {
        "deltaTime": 13,
        "channel": 0,
        "type": "channel",
        "noteNumber": 74,
        "velocity": 80,
        "subtype": "noteOn"
      },
      {
        "deltaTime": 227,
        "channel": 0,
        "type": "channel",
        "noteNumber": 74,
        "velocity": 0,
        "subtype": "noteOff"
      },
      {
        "deltaTime": 13,
        "channel": 0,
        "type": "channel",
        "noteNumber": 76,
        "velocity": 80,
        "subtype": "noteOn"
      },
      {
        "deltaTime": 227,
        "channel": 0,
        "type": "channel",
        "noteNumber": 76,
        "velocity": 0,
        "subtype": "noteOff"
      },
      {
        "deltaTime": 13,
        "channel": 0,
        "type": "channel",
        "noteNumber": 74,
        "velocity": 80,
        "subtype": "noteOn"
      },
      {
        "deltaTime": 227,
        "channel": 0,
        "type": "channel",
        "noteNumber": 74,
        "velocity": 0,
        "subtype": "noteOff"
      },
      {
        "deltaTime": 973,
        "channel": 0,
        "type": "channel",
        "noteNumber": 74,
        "velocity": 80,
        "subtype": "noteOn"
      },
      {
        "deltaTime": 227,
        "channel": 0,
        "type": "channel",
        "noteNumber": 74,
        "velocity": 0,
        "subtype": "noteOff"
      },
      {
        "deltaTime": 13,
        "channel": 0,
        "type": "channel",
        "noteNumber": 74,
        "velocity": 80,
        "subtype": "noteOn"
      },
      {
        "deltaTime": 227,
        "channel": 0,
        "type": "channel",
        "noteNumber": 74,
        "velocity": 0,
        "subtype": "noteOff"
      },
      {
        "deltaTime": 13,
        "channel": 0,
        "type": "channel",
        "noteNumber": 76,
        "velocity": 80,
        "subtype": "noteOn"
      },
      {
        "deltaTime": 227,
        "channel": 0,
        "type": "channel",
        "noteNumber": 76,
        "velocity": 0,
        "subtype": "noteOff"
      },
      {
        "deltaTime": 13,
        "channel": 0,
        "type": "channel",
        "noteNumber": 78,
        "velocity": 80,
        "subtype": "noteOn"
      },
      {
        "deltaTime": 227,
        "channel": 0,
        "type": "channel",
        "noteNumber": 78,
        "velocity": 0,
        "subtype": "noteOff"
      },
      {
        "deltaTime": 13,
        "channel": 0,
        "type": "channel",
        "noteNumber": 76,
        "velocity": 80,
        "subtype": "noteOn"
      },
      {
        "deltaTime": 227,
        "channel": 0,
        "type": "channel",
        "noteNumber": 76,
        "velocity": 0,
        "subtype": "noteOff"
      },
      {
        "deltaTime": 13,
        "channel": 0,
        "type": "channel",
        "noteNumber": 74,
        "velocity": 80,
        "subtype": "noteOn"
      },
      {
        "deltaTime": 227,
        "channel": 0,
        "type": "channel",
        "noteNumber": 74,
        "velocity": 0,
        "subtype": "noteOff"
      },
      {
        "deltaTime": 493,
        "channel": 0,
        "type": "channel",
        "noteNumber": 76,
        "velocity": 80,
        "subtype": "noteOn"
      },
      {
        "deltaTime": 455,
        "channel": 0,
        "type": "channel",
        "noteNumber": 76,
        "velocity": 0,
        "subtype": "noteOff"
      },
      {
        "deltaTime": 25,
        "channel": 0,
        "type": "channel",
        "noteNumber": 74,
        "velocity": 80,
        "subtype": "noteOn"
      },
      {
        "deltaTime": 683,
        "channel": 0,
        "type": "channel",
        "noteNumber": 74,
        "velocity": 0,
        "subtype": "noteOff"
      },
      {
        "deltaTime": 37,
        "channel": 0,
        "type": "channel",
        "noteNumber": 79,
        "velocity": 80,
        "subtype": "noteOn"
      },
      {
        "deltaTime": 455,
        "channel": 0,
        "type": "channel",
        "noteNumber": 79,
        "velocity": 0,
        "subtype": "noteOff"
      },
      {
        "deltaTime": 25,
        "channel": 0,
        "type": "channel",
        "noteNumber": 79,
        "velocity": 80,
        "subtype": "noteOn"
      },
      {
        "deltaTime": 227,
        "channel": 0,
        "type": "channel",
        "noteNumber": 79,
        "velocity": 0,
        "subtype": "noteOff"
      },
      {
        "deltaTime": 13,
        "channel": 0,
        "type": "channel",
        "noteNumber": 78,
        "velocity": 80,
        "subtype": "noteOn"
      },
      {
        "deltaTime": 227,
        "channel": 0,
        "type": "channel",
        "noteNumber": 78,
        "velocity": 0,
        "subtype": "noteOff"
      },
      {
        "deltaTime": 13,
        "channel": 0,
        "type": "channel",
        "noteNumber": 74,
        "velocity": 80,
        "subtype": "noteOn"
      },
      {
        "deltaTime": 227,
        "channel": 0,
        "type": "channel",
        "noteNumber": 74,
        "velocity": 0,
        "subtype": "noteOff"
      },
      {
        "deltaTime": 13,
        "channel": 0,
        "type": "channel",
        "noteNumber": 76,
        "velocity": 80,
        "subtype": "noteOn"
      },
      {
        "deltaTime": 227,
        "channel": 0,
        "type": "channel",
        "noteNumber": 76,
        "velocity": 0,
        "subtype": "noteOff"
      },
      {
        "deltaTime": 13,
        "channel": 0,
        "type": "channel",
        "noteNumber": 74,
        "velocity": 80,
        "subtype": "noteOn"
      },
      {
        "deltaTime": 227,
        "channel": 0,
        "type": "channel",
        "noteNumber": 74,
        "velocity": 0,
        "subtype": "noteOff"
      },
      {
        "deltaTime": 13,
        "channel": 0,
        "type": "channel",
        "noteNumber": 76,
        "velocity": 80,
        "subtype": "noteOn"
      },
      {
        "deltaTime": 227,
        "channel": 0,
        "type": "channel",
        "noteNumber": 76,
        "velocity": 0,
        "subtype": "noteOff"
      },
      {
        "deltaTime": 13,
        "channel": 0,
        "type": "channel",
        "noteNumber": 74,
        "velocity": 80,
        "subtype": "noteOn"
      },
      {
        "deltaTime": 227,
        "channel": 0,
        "type": "channel",
        "noteNumber": 74,
        "velocity": 0,
        "subtype": "noteOff"
      },
      {
        "deltaTime": 13,
        "channel": 0,
        "type": "channel",
        "noteNumber": 74,
        "velocity": 80,
        "subtype": "noteOn"
      },
      {
        "deltaTime": 1823,
        "channel": 0,
        "type": "channel",
        "noteNumber": 74,
        "velocity": 0,
        "subtype": "noteOff"
      },
      {
        "deltaTime": 1,
        "type": "meta",
        "subtype": "endOfTrack"
      }
    ],
    [
      {
        "deltaTime": 0,
        "type": "meta",
        "subtype": "trackName",
        "text": "Piano\u0000"
      },
      {
        "deltaTime": 0,
        "type": "meta",
        "subtype": "keySignature",
        "key": 0,
        "scale": 0
      },
      {
        "deltaTime": 0,
        "type": "meta",
        "subtype": "unknown",
        "data": "\u0000"
      },
      {
        "deltaTime": 0,
        "channel": 0,
        "type": "channel",
        "noteNumber": 62,
        "velocity": 80,
        "subtype": "noteOn"
      },
      {
        "deltaTime": 0,
        "channel": 0,
        "type": "channel",
        "noteNumber": 66,
        "velocity": 80,
        "subtype": "noteOn"
      },
      {
        "deltaTime": 1823,
        "channel": 0,
        "type": "channel",
        "noteNumber": 62,
        "velocity": 0,
        "subtype": "noteOff"
      },
      {
        "deltaTime": 0,
        "channel": 0,
        "type": "channel",
        "noteNumber": 66,
        "velocity": 0,
        "subtype": "noteOff"
      },
      {
        "deltaTime": 97,
        "channel": 0,
        "type": "channel",
        "noteNumber": 62,
        "velocity": 80,
        "subtype": "noteOn"
      },
      {
        "deltaTime": 0,
        "channel": 0,
        "type": "channel",
        "noteNumber": 66,
        "velocity": 80,
        "subtype": "noteOn"
      },
      {
        "deltaTime": 1823,
        "channel": 0,
        "type": "channel",
        "noteNumber": 62,
        "velocity": 0,
        "subtype": "noteOff"
      },
      {
        "deltaTime": 0,
        "channel": 0,
        "type": "channel",
        "noteNumber": 66,
        "velocity": 0,
        "subtype": "noteOff"
      },
      {
        "deltaTime": 97,
        "channel": 0,
        "type": "channel",
        "noteNumber": 67,
        "velocity": 80,
        "subtype": "noteOn"
      },
      {
        "deltaTime": 0,
        "channel": 0,
        "type": "channel",
        "noteNumber": 71,
        "velocity": 80,
        "subtype": "noteOn"
      },
      {
        "deltaTime": 1823,
        "channel": 0,
        "type": "channel",
        "noteNumber": 67,
        "velocity": 0,
        "subtype": "noteOff"
      },
      {
        "deltaTime": 0,
        "channel": 0,
        "type": "channel",
        "noteNumber": 71,
        "velocity": 0,
        "subtype": "noteOff"
      },
      {
        "deltaTime": 97,
        "channel": 0,
        "type": "channel",
        "noteNumber": 67,
        "velocity": 80,
        "subtype": "noteOn"
      },
      {
        "deltaTime": 0,
        "channel": 0,
        "type": "channel",
        "noteNumber": 71,
        "velocity": 80,
        "subtype": "noteOn"
      },
      {
        "deltaTime": 1823,
        "channel": 0,
        "type": "channel",
        "noteNumber": 67,
        "velocity": 0,
        "subtype": "noteOff"
      },
      {
        "deltaTime": 0,
        "channel": 0,
        "type": "channel",
        "noteNumber": 71,
        "velocity": 0,
        "subtype": "noteOff"
      },
      {
        "deltaTime": 97,
        "channel": 0,
        "type": "channel",
        "noteNumber": 62,
        "velocity": 80,
        "subtype": "noteOn"
      },
      {
        "deltaTime": 0,
        "channel": 0,
        "type": "channel",
        "noteNumber": 66,
        "velocity": 80,
        "subtype": "noteOn"
      },
      {
        "deltaTime": 1823,
        "channel": 0,
        "type": "channel",
        "noteNumber": 62,
        "velocity": 0,
        "subtype": "noteOff"
      },
      {
        "deltaTime": 0,
        "channel": 0,
        "type": "channel",
        "noteNumber": 66,
        "velocity": 0,
        "subtype": "noteOff"
      },
      {
        "deltaTime": 97,
        "channel": 0,
        "type": "channel",
        "noteNumber": 62,
        "velocity": 80,
        "subtype": "noteOn"
      },
      {
        "deltaTime": 0,
        "channel": 0,
        "type": "channel",
        "noteNumber": 66,
        "velocity": 80,
        "subtype": "noteOn"
      },
      {
        "deltaTime": 1823,
        "channel": 0,
        "type": "channel",
        "noteNumber": 62,
        "velocity": 0,
        "subtype": "noteOff"
      },
      {
        "deltaTime": 0,
        "channel": 0,
        "type": "channel",
        "noteNumber": 66,
        "velocity": 0,
        "subtype": "noteOff"
      },
      {
        "deltaTime": 97,
        "channel": 0,
        "type": "channel",
        "noteNumber": 67,
        "velocity": 80,
        "subtype": "noteOn"
      },
      {
        "deltaTime": 0,
        "channel": 0,
        "type": "channel",
        "noteNumber": 71,
        "velocity": 80,
        "subtype": "noteOn"
      },
      {
        "deltaTime": 1823,
        "channel": 0,
        "type": "channel",
        "noteNumber": 67,
        "velocity": 0,
        "subtype": "noteOff"
      },
      {
        "deltaTime": 0,
        "channel": 0,
        "type": "channel",
        "noteNumber": 71,
        "velocity": 0,
        "subtype": "noteOff"
      },
      {
        "deltaTime": 97,
        "channel": 0,
        "type": "channel",
        "noteNumber": 67,
        "velocity": 80,
        "subtype": "noteOn"
      },
      {
        "deltaTime": 0,
        "channel": 0,
        "type": "channel",
        "noteNumber": 71,
        "velocity": 80,
        "subtype": "noteOn"
      },
      {
        "deltaTime": 1823,
        "channel": 0,
        "type": "channel",
        "noteNumber": 67,
        "velocity": 0,
        "subtype": "noteOff"
      },
      {
        "deltaTime": 0,
        "channel": 0,
        "type": "channel",
        "noteNumber": 71,
        "velocity": 0,
        "subtype": "noteOff"
      },
      {
        "deltaTime": 97,
        "channel": 0,
        "type": "channel",
        "noteNumber": 62,
        "velocity": 80,
        "subtype": "noteOn"
      },
      {
        "deltaTime": 1823,
        "channel": 0,
        "type": "channel",
        "noteNumber": 62,
        "velocity": 0,
        "subtype": "noteOff"
      },
      {
        "deltaTime": 97,
        "channel": 0,
        "type": "channel",
        "noteNumber": 61,
        "velocity": 80,
        "subtype": "noteOn"
      },
      {
        "deltaTime": 1823,
        "channel": 0,
        "type": "channel",
        "noteNumber": 61,
        "velocity": 0,
        "subtype": "noteOff"
      },
      {
        "deltaTime": 97,
        "channel": 0,
        "type": "channel",
        "noteNumber": 59,
        "velocity": 80,
        "subtype": "noteOn"
      },
      {
        "deltaTime": 1823,
        "channel": 0,
        "type": "channel",
        "noteNumber": 59,
        "velocity": 0,
        "subtype": "noteOff"
      },
      {
        "deltaTime": 97,
        "channel": 0,
        "type": "channel",
        "noteNumber": 57,
        "velocity": 80,
        "subtype": "noteOn"
      },
      {
        "deltaTime": 1823,
        "channel": 0,
        "type": "channel",
        "noteNumber": 57,
        "velocity": 0,
        "subtype": "noteOff"
      },
      {
        "deltaTime": 97,
        "channel": 0,
        "type": "channel",
        "noteNumber": 55,
        "velocity": 80,
        "subtype": "noteOn"
      },
      {
        "deltaTime": 1823,
        "channel": 0,
        "type": "channel",
        "noteNumber": 55,
        "velocity": 0,
        "subtype": "noteOff"
      },
      {
        "deltaTime": 97,
        "channel": 0,
        "type": "channel",
        "noteNumber": 52,
        "velocity": 80,
        "subtype": "noteOn"
      },
      {
        "deltaTime": 911,
        "channel": 0,
        "type": "channel",
        "noteNumber": 52,
        "velocity": 0,
        "subtype": "noteOff"
      },
      {
        "deltaTime": 49,
        "channel": 0,
        "type": "channel",
        "noteNumber": 57,
        "velocity": 80,
        "subtype": "noteOn"
      },
      {
        "deltaTime": 911,
        "channel": 0,
        "type": "channel",
        "noteNumber": 57,
        "velocity": 0,
        "subtype": "noteOff"
      },
      {
        "deltaTime": 49,
        "channel": 0,
        "type": "channel",
        "noteNumber": 62,
        "velocity": 80,
        "subtype": "noteOn"
      },
      {
        "deltaTime": 1367,
        "channel": 0,
        "type": "channel",
        "noteNumber": 62,
        "velocity": 0,
        "subtype": "noteOff"
      },
      {
        "deltaTime": 73,
        "channel": 0,
        "type": "channel",
        "noteNumber": 61,
        "velocity": 80,
        "subtype": "noteOn"
      },
      {
        "deltaTime": 455,
        "channel": 0,
        "type": "channel",
        "noteNumber": 61,
        "velocity": 0,
        "subtype": "noteOff"
      },
      {
        "deltaTime": 25,
        "channel": 0,
        "type": "channel",
        "noteNumber": 59,
        "velocity": 80,
        "subtype": "noteOn"
      },
      {
        "deltaTime": 1823,
        "channel": 0,
        "type": "channel",
        "noteNumber": 59,
        "velocity": 0,
        "subtype": "noteOff"
      },
      {
        "deltaTime": 97,
        "channel": 0,
        "type": "channel",
        "noteNumber": 55,
        "velocity": 80,
        "subtype": "noteOn"
      },
      {
        "deltaTime": 1823,
        "channel": 0,
        "type": "channel",
        "noteNumber": 55,
        "velocity": 0,
        "subtype": "noteOff"
      },
      {
        "deltaTime": 97,
        "channel": 0,
        "type": "channel",
        "noteNumber": 52,
        "velocity": 80,
        "subtype": "noteOn"
      },
      {
        "deltaTime": 911,
        "channel": 0,
        "type": "channel",
        "noteNumber": 52,
        "velocity": 0,
        "subtype": "noteOff"
      },
      {
        "deltaTime": 49,
        "channel": 0,
        "type": "channel",
        "noteNumber": 57,
        "velocity": 80,
        "subtype": "noteOn"
      },
      {
        "deltaTime": 911,
        "channel": 0,
        "type": "channel",
        "noteNumber": 57,
        "velocity": 0,
        "subtype": "noteOff"
      },
      {
        "deltaTime": 49,
        "channel": 0,
        "type": "channel",
        "noteNumber": 62,
        "velocity": 80,
        "subtype": "noteOn"
      },
      {
        "deltaTime": 1823,
        "channel": 0,
        "type": "channel",
        "noteNumber": 62,
        "velocity": 0,
        "subtype": "noteOff"
      },
      {
        "deltaTime": 1,
        "type": "meta",
        "subtype": "endOfTrack"
      }
    ]
  ]
}